<?xml version="1.0" standalone="no"?>
<!DOCTYPE svg PUBLIC "-//W3C//DTD SVG 20010904//EN"
 "http://www.w3.org/TR/2001/REC-SVG-20010904/DTD/svg10.dtd">
<svg version="1.0" xmlns="http://www.w3.org/2000/svg"
 width="291.000000pt" height="292.000000pt" viewBox="0 0 291.000000 292.000000"
 preserveAspectRatio="xMidYMid meet">

<g transform="translate(0.000000,292.000000) scale(0.100000,-0.100000)"
fill="#000000" stroke="none">
<path d="M1390 2893 c-12 -16 -56 -82 -99 -148 -79 -122 -151 -220 -417 -565
-302 -390 -414 -584 -481 -829 -24 -86 -27 -114 -27 -261 0 -146 3 -176 26
-262 55 -204 149 -368 291 -509 161 -159 331 -249 567 -300 132 -29 332 -23
472 14 595 158 949 766 782 1345 -68 236 -196 449 -510 852 -199 255 -296 387
-381 518 -101 155 -117 172 -164 172 -29 0 -42 -6 -59 -27z m126 -330 c32 -48
129 -177 214 -287 363 -472 433 -573 515 -741 95 -194 125 -329 114 -503 -15
-221 -95 -402 -249 -565 -114 -122 -270 -214 -435 -258 -115 -31 -316 -31
-438 -1 -257 64 -481 242 -599 477 -74 145 -110 346 -90 502 33 258 153 477
526 956 189 242 351 463 362 491 3 9 9 16 13 16 4 0 34 -39 67 -87z"/>
<path d="M1070 1799 c-177 -80 -217 -323 -75 -448 64 -56 117 -74 199 -69 83
6 125 25 179 81 59 62 80 117 75 202 -5 76 -21 115 -71 171 -70 80 -207 108
-307 63z m178 -190 c10 -13 20 -30 24 -39 5 -12 7 -11 7 4 1 11 -6 28 -16 38
-18 20 -4 25 15 6 20 -20 13 -63 -18 -106 -34 -47 -67 -59 -116 -44 -19 6 -34
6 -34 1 0 -5 5 -9 12 -9 6 0 9 -2 6 -6 -3 -3 -2 -20 2 -39 5 -23 4 -33 -2 -29
-6 4 -8 1 -6 -7 3 -8 12 -13 21 -11 8 1 18 -2 22 -8 18 -29 125 22 125 60 0
30 40 61 75 58 30 -3 42 -27 17 -36 -7 -2 -10 2 -6 12 5 12 0 16 -19 16 -29 0
-37 -9 -47 -56 -5 -22 -4 -35 4 -38 8 -3 8 -5 -1 -5 -6 -1 -15 4 -18 9 -4 6
-18 0 -37 -15 -28 -24 -48 -29 -93 -26 -25 2 -65 46 -64 69 0 14 2 13 9 -3 7
-16 9 -17 9 -3 1 25 -10 49 -20 42 -5 -3 -5 5 0 18 4 13 5 32 0 43 -16 42 -10
76 21 107 27 27 36 30 71 25 27 -3 47 -13 57 -28z m130 -215 c-2 -10 -14 -19
-28 -21 -14 -1 -20 0 -14 4 6 5 17 19 24 33 14 25 24 15 18 -16z"/>
<path d="M1778 1553 c-102 -100 -116 -119 -87 -119 10 0 22 8 25 18 9 31 89
39 89 9 0 -8 -6 -16 -13 -19 -7 -2 -10 2 -6 12 5 12 0 16 -20 16 -28 0 -46
-25 -46 -64 0 -44 22 -42 53 4 l17 24 0 -31 c0 -17 3 -40 7 -50 6 -16 5 -16
-10 -4 -9 7 -14 17 -11 22 7 12 -3 11 -26 -1 -23 -12 -50 11 -50 41 0 16 -5
19 -20 14 -30 -10 -46 -25 -422 -398 -347 -343 -348 -344 -348 -386 0 -56 33
-91 87 -91 37 0 53 15 521 483 441 442 482 485 482 516 0 47 -46 91 -96 91
-33 0 -46 -9 -126 -87z"/>
<path d="M1650 901 c-73 -23 -147 -89 -178 -160 -22 -53 -20 -156 5 -212 64
-142 228 -203 366 -135 206 100 208 384 4 486 -62 31 -137 39 -197 21z m126
-189 c73 -58 39 -162 -53 -162 -88 0 -116 123 -38 168 29 16 67 14 91 -6z"/>
</g>
</svg>
