<svg version="1.1" id="Layer_1" xmlns="http://www.w3.org/2000/svg" xmlns:xlink="http://www.w3.org/1999/xlink" x="0px" y="0px"
	 width="100%" viewBox="0 0 480 480" enable-background="new 0 0 480 480" xml:space="preserve">
<path fill="#000000" opacity="1.000000" stroke="none" 
	d="
M364.649475,411.811035 
	C342.813141,420.581818 320.302704,424.740479 297.432617,427.411621 
	C276.727631,429.829895 255.952606,430.879364 235.133667,430.228210 
	C201.618637,429.179901 168.376312,426.035004 136.345474,415.176331 
	C127.653374,412.229645 119.260818,408.613739 111.657951,403.325775 
	C95.545700,392.119171 95.896927,377.191132 112.521141,366.694519 
	C127.559921,357.198975 144.351578,352.543518 161.453430,348.651978 
	C177.370499,345.030029 193.572037,343.454254 209.749023,341.669006 
	C210.860107,341.546387 212.124100,341.880463 213.207413,340.519653 
	C212.686935,337.500580 210.616089,335.035736 208.969421,332.431854 
	C188.589600,300.205414 168.605255,267.741058 148.847702,235.125214 
	C111.857597,174.061905 138.642563,89.225327 213.341217,66.657784 
	C248.680328,55.981316 282.256927,61.366379 312.316223,82.444725 
	C343.265045,104.146835 359.164124,134.684097 360.465393,172.765106 
	C361.346924,198.562347 353.087158,221.215042 339.719330,242.910995 
	C320.415222,274.241577 300.895020,305.437317 281.571136,336.754852 
	C280.810608,337.987427 279.643341,339.086517 280.015198,341.080383 
	C286.671448,342.916656 293.683990,342.737152 300.536774,343.651367 
	C323.178558,346.671875 345.521484,350.855743 366.683350,359.863647 
	C372.842834,362.485535 378.577972,365.880707 383.788422,370.090607 
	C394.993317,379.143707 394.911896,392.067169 383.585754,400.991974 
	C377.923615,405.453583 371.588531,408.787933 364.649475,411.811035 
M217.493835,135.970062 
	C202.308929,147.371780 196.547318,162.817123 197.768082,181.391129 
	C199.135834,202.201431 219.750778,226.699677 249.666824,225.048294 
	C278.055054,223.481293 300.876953,195.190002 295.178375,167.333130 
	C287.785217,131.192291 249.190094,115.280495 217.493835,135.970062 
M220.283539,355.436249 
	C206.238831,356.992859 192.177216,358.442719 178.511856,362.309570 
	C168.713272,365.082306 158.968536,368.001312 150.842346,374.523804 
	C145.893829,378.495789 145.770859,382.394928 150.557953,386.525543 
	C155.679550,390.944916 161.823135,393.577026 168.121704,395.806000 
	C186.633408,402.356934 205.880722,404.789001 225.356201,406.023193 
	C254.254471,407.854492 282.914703,406.352295 311.129913,399.585052 
	C321.643250,397.063507 332.116699,394.003540 340.779327,387.006439 
	C346.588043,382.314545 346.542358,378.894440 340.730835,374.176605 
	C335.076569,369.586365 328.389709,366.946899 321.585083,364.680725 
	C305.705200,359.392212 289.191772,357.399323 272.663879,355.491302 
	C270.022736,355.186401 268.706573,356.560699 267.468903,358.493835 
	C262.082245,366.907562 256.683655,375.314087 251.213348,383.673431 
	C249.821411,385.800507 248.949509,388.472260 245.855072,389.711151 
	C244.725311,388.114197 243.629669,386.684174 242.659027,385.173828 
	C237.166626,376.627777 231.726654,368.047974 226.214264,359.514893 
	C224.984467,357.611176 224.032272,355.224030 220.283539,355.436249 
z"/>
</svg>