<svg width="198" height="200" version="1.1" xmlns="http://www.w3.org/2000/svg" desc="Created with imagetracer.js version 1.2.6" ><path fill="rgb(237,237,237)" stroke="rgb(237,237,237)" stroke-width="1" opacity="0.996078431372549" d="M 79.5 0 Q 83.3 -1 82 2 L 79.5 0 Z " /><path fill="rgb(237,237,237)" stroke="rgb(237,237,237)" stroke-width="1" opacity="0.996078431372549" d="M 116 0 L 119 0.5 L 116 2 L 116 0 Z " /><path fill="rgb(237,237,237)" stroke="rgb(237,237,237)" stroke-width="1" opacity="0.996078431372549" d="M 131.5 1 L 133 1.5 L 129.5 3 L 129.5 2 L 131.5 1 Z " /><path fill="rgb(237,237,237)" stroke="rgb(237,237,237)" stroke-width="1" opacity="0.996078431372549" d="M 67.5 3 L 70 4.5 L 68.5 5 L 67.5 3 Z " /><path fill="rgb(237,237,237)" stroke="rgb(237,237,237)" stroke-width="1" opacity="0.996078431372549" d="M 63.5 5 L 64 7 L 62 6.5 L 63.5 5 Z " /><path fill="rgb(237,237,237)" stroke="rgb(237,237,237)" stroke-width="1" opacity="0.996078431372549" d="M 136.5 6 L 137.5 8 L 136.5 6 Z " /><path fill="rgb(237,237,237)" stroke="rgb(237,237,237)" stroke-width="1" opacity="0.996078431372549" d="M 47.5 8 Q 50.5 9.5 47.5 11 L 45.5 10 L 44 10.5 L 47.5 8 Z " /><path fill="rgb(237,237,237)" stroke="rgb(237,237,237)" stroke-width="1" opacity="0.996078431372549" d="M 52.5 9 L 55 10.5 L 53.5 10 L 52.5 9 Z " /><path fill="rgb(237,237,237)" stroke="rgb(237,237,237)" stroke-width="1" opacity="0.996078431372549" d="M 150.5 9 L 151.5 11 L 150.5 9 Z " /><path fill="rgb(237,237,237)" stroke="rgb(237,237,237)" stroke-width="1" opacity="0.996078431372549" d="M 148.5 11 L 147.5 13 L 148.5 11 Z " /><path fill="rgb(237,237,237)" stroke="rgb(237,237,237)" stroke-width="1" opacity="0.996078431372549" d="M 45.5 12 L 49 13.5 L 45.5 16 L 46.5 13 L 44.5 14 L 45.5 12 Z " /><path fill="rgb(237,237,237)" stroke="rgb(237,237,237)" stroke-width="1" opacity="0.996078431372549" d="M 151.5 14 L 155.5 17 L 157 16.5 Q 155.3 19.8 153.5 16 L 151.5 14 Z " /><path fill="rgb(237,237,237)" stroke="rgb(237,237,237)" stroke-width="1" opacity="0.996078431372549" d="M 39.5 16 L 43 17.5 L 40.5 18 L 39.5 16 Z " /><path fill="rgb(237,237,237)" stroke="rgb(237,237,237)" stroke-width="1" opacity="0.996078431372549" d="M 163.5 16 L 167 19.5 L 166 20.5 L 165.5 22 Q 164.3 19.8 163 22.5 L 166 23.5 L 165.5 26 L 162 22.5 Q 165.1 20.7 163.5 19 L 165.5 20 L 163.5 16 Z " /><path fill="rgb(237,237,237)" stroke="rgb(237,237,237)" stroke-width="1" opacity="0.996078431372549" d="M 34.5 17 L 35.5 19 L 34.5 17 Z " /><path fill="rgb(237,237,237)" stroke="rgb(237,237,237)" stroke-width="1" opacity="0.996078431372549" d="M 33.5 19 L 32.5 21 L 33.5 19 Z " /><path fill="rgb(237,237,237)" stroke="rgb(237,237,237)" stroke-width="1" opacity="0.996078431372549" d="M 39.5 19 L 38.5 21 L 39.5 19 Z " /><path fill="rgb(237,237,237)" stroke="rgb(237,237,237)" stroke-width="1" opacity="0.996078431372549" d="M 89.5 21 L 92 21.5 L 89.5 22 L 89.5 21 Z " /><path fill="rgb(237,237,237)" stroke="rgb(237,237,237)" stroke-width="1" opacity="0.996078431372549" d="M 105.5 21 L 110 21.5 L 105.5 22 L 105.5 21 Z " /><path fill="rgb(237,237,237)" stroke="rgb(237,237,237)" stroke-width="1" opacity="0.996078431372549" d="M 33.5 22 Q 37 24 32.5 26 L 33.5 22 Z " /><path fill="rgb(237,237,237)" stroke="rgb(237,237,237)" stroke-width="1" opacity="0.996078431372549" d="M 82.5 22 L 86 22.5 L 83.5 24 L 82.5 22 Z " /><path fill="rgb(237,237,237)" stroke="rgb(237,237,237)" stroke-width="1" opacity="0.996078431372549" d="M 113.5 22 L 116 22.5 Q 113.9 25.8 113.5 22 Z " /><path fill="rgb(237,237,237)" stroke="rgb(237,237,237)" stroke-width="1" opacity="0.996078431372549" d="M 78 23 L 81 23.5 L 75.5 27 L 75.5 24 L 78 25 L 78 23 Z " /><path fill="rgb(237,237,237)" stroke="rgb(237,237,237)" stroke-width="1" opacity="0.996078431372549" d="M 169.5 24 L 168.5 26 L 169.5 24 Z " /><path fill="rgb(237,237,237)" stroke="rgb(237,237,237)" stroke-width="1" opacity="0.996078431372549" d="M 26.5 25 L 25.5 27 L 26.5 25 Z " /><path fill="rgb(237,237,237)" stroke="rgb(237,237,237)" stroke-width="1" opacity="0.996078431372549" d="M 124.5 25 L 127 26.5 L 125.5 26 L 124.5 25 Z " /><path fill="rgb(237,237,237)" stroke="rgb(237,237,237)" stroke-width="1" opacity="0.996078431372549" d="M 172.5 25 L 171.5 27 L 172.5 25 Z " /><path fill="rgb(237,237,237)" stroke="rgb(237,237,237)" stroke-width="1" opacity="0.996078431372549" d="M 70.5 26 L 71.5 28 L 70.5 26 Z " /><path fill="rgb(237,237,237)" stroke="rgb(237,237,237)" stroke-width="1" opacity="0.996078431372549" d="M 79.5 26 L 78.5 28 L 77 27.5 L 79.5 26 Z " /><path fill="rgb(237,237,237)" stroke="rgb(237,237,237)" stroke-width="1" opacity="0.996078431372549" d="M 65.5 28 L 64.5 30 L 63 29.5 L 65.5 28 Z " /><path fill="rgb(237,237,237)" stroke="rgb(237,237,237)" stroke-width="1" opacity="0.996078431372549" d="M 171.5 29 L 174.5 30 L 176 29.5 L 172.5 32 L 172.5 30 L 171.5 29 Z " /><path fill="rgb(237,237,237)" stroke="rgb(237,237,237)" stroke-width="1" opacity="0.996078431372549" d="M 61.5 30 L 62.5 32 L 61.5 30 Z " /><path fill="rgb(237,237,237)" stroke="rgb(237,237,237)" stroke-width="1" opacity="0.996078431372549" d="M 136.5 30 L 135.5 32 L 136.5 30 Z " /><path fill="rgb(237,237,237)" stroke="rgb(237,237,237)" stroke-width="1" opacity="0.996078431372549" d="M 59.5 31 L 58.5 33 L 59.5 31 Z " /><path fill="rgb(237,237,237)" stroke="rgb(237,237,237)" stroke-width="1" opacity="0.996078431372549" d="M 138.5 31 L 137.5 35 Q 134 33 138.5 31 Z " /><path fill="rgb(237,237,237)" stroke="rgb(237,237,237)" stroke-width="1" opacity="0.996078431372549" d="M 140.5 32 Q 143.3 33.3 141 34.5 L 140 36.5 L 140.5 38 Q 137.8 36.8 140 35.5 L 139 33.5 L 140.5 32 Z " /><path fill="rgb(237,237,237)" stroke="rgb(237,237,237)" stroke-width="1" opacity="0.996078431372549" d="M 16.5 33 Q 18.3 36.1 20 34.5 L 18.5 36 L 16.5 33 Z " /><path fill="rgb(237,237,237)" stroke="rgb(237,237,237)" stroke-width="1" opacity="0.996078431372549" d="M 177.5 33 L 176.5 36 L 181 38.5 L 179.5 39 L 174 34.5 Q 175.8 36.1 177.5 33 Z " /><path fill="rgb(237,237,237)" stroke="rgb(237,237,237)" stroke-width="1" opacity="0.996078431372549" d="M 181.5 33 L 179.5 36 L 181.5 33 Z " /><path fill="rgb(237,237,237)" stroke="rgb(237,237,237)" stroke-width="1" opacity="0.996078431372549" d="M 23.5 34 L 21.5 37 L 23.5 34 Z " /><path fill="rgb(237,237,237)" stroke="rgb(237,237,237)" stroke-width="1" opacity="0.996078431372549" d="M 54.5 34 L 55 36 Q 52.3 34.9 53 37.5 L 50.5 40 L 48 39.5 Q 50 35.8 52 37.5 L 54.5 34 Z " /><path fill="rgb(237,237,237)" stroke="rgb(237,237,237)" stroke-width="1" opacity="0.996078431372549" d="M 143.5 34 L 144.5 36 L 143.5 34 Z " /><path fill="rgb(237,237,237)" stroke="rgb(237,237,237)" stroke-width="1" opacity="0.996078431372549" d="M 181.5 36 L 184 36.5 Q 181.9 39.8 181.5 36 Z " /><path fill="rgb(237,237,237)" stroke="rgb(237,237,237)" stroke-width="1" opacity="0.996078431372549" d="M 19.5 37 L 20 39.5 L 18.5 41 Q 15 39 19.5 37 Z " /><path fill="rgb(237,237,237)" stroke="rgb(237,237,237)" stroke-width="1" opacity="0.996078431372549" d="M 137.5 37 L 138.5 39 L 137.5 37 Z " /><path fill="rgb(237,237,237)" stroke="rgb(237,237,237)" stroke-width="1" opacity="0.996078431372549" d="M 147.5 37 L 150.5 41 L 148.5 41 L 146 38.5 L 147.5 37 Z " /><path fill="rgb(237,237,237)" stroke="rgb(237,237,237)" stroke-width="1" opacity="0.996078431372549" d="M 143.5 38 L 145.5 41 Q 143.8 37.9 142 39.5 L 143.5 38 Z " /><path fill="rgb(237,237,237)" stroke="rgb(237,237,237)" stroke-width="1" opacity="0.996078431372549" d="M 182.5 39 L 184 41.5 Q 180.9 43.3 182.5 45 L 181.5 42 L 179 40.5 L 180.5 41 Q 183 41.7 182.5 39 Z " /><path fill="rgb(237,237,237)" stroke="rgb(237,237,237)" stroke-width="1" opacity="0.996078431372549" d="M 46.5 41 L 45.5 43 L 46.5 41 Z " /><path fill="rgb(237,237,237)" stroke="rgb(237,237,237)" stroke-width="1" opacity="0.996078431372549" d="M 14.5 43 L 15 44.5 L 14.5 47 Q 11.8 45.8 14 44.5 L 14.5 43 Z " /><path fill="rgb(237,237,237)" stroke="rgb(237,237,237)" stroke-width="1" opacity="0.996078431372549" d="M 155.5 44 L 157.5 47 L 155.5 44 Z " /><path fill="rgb(237,237,237)" stroke="rgb(237,237,237)" stroke-width="1" opacity="0.996078431372549" d="M 45.5 45 L 46.5 47 L 45.5 45 Z " /><path fill="rgb(237,237,237)" stroke="rgb(237,237,237)" stroke-width="1" opacity="0.996078431372549" d="M 154.5 46 L 155.5 48 L 153 47.5 L 154.5 46 Z " /><path fill="rgb(237,237,237)" stroke="rgb(237,237,237)" stroke-width="1" opacity="0.996078431372549" d="M 183.5 46 L 184.5 48 L 183.5 46 Z " /><path fill="rgb(237,237,237)" stroke="rgb(237,237,237)" stroke-width="1" opacity="0.996078431372549" d="M 9.5 48 L 10 50.5 L 8.5 52 L 8 49.5 L 9.5 48 Z " /><path fill="rgb(237,237,237)" stroke="rgb(237,237,237)" stroke-width="1" opacity="0.996078431372549" d="M 39.5 48 L 36.5 52 L 39.5 48 Z " /><path fill="rgb(237,237,237)" stroke="rgb(237,237,237)" stroke-width="1" opacity="0.996078431372549" d="M 188.5 48 Q 191.5 49.5 188.5 51 L 188.5 48 Z " /><path fill="rgb(237,237,237)" stroke="rgb(237,237,237)" stroke-width="1" opacity="0.996078431372549" d="M 46.5 49 L 47 51.5 L 45 50.5 L 46.5 49 Z " /><path fill="rgb(237,237,237)" stroke="rgb(237,237,237)" stroke-width="1" opacity="0.996078431372549" d="M 159.5 49 L 161.5 52 L 159 51.5 L 159.5 49 Z " /><path fill="rgb(237,237,237)" stroke="rgb(237,237,237)" stroke-width="1" opacity="0.996078431372549" d="M 191.5 50 L 191 51.5 L 190.5 53 L 190 51.5 L 191.5 50 Z " /><path fill="rgb(237,237,237)" stroke="rgb(237,237,237)" stroke-width="1" opacity="0.996078431372549" d="M 11.5 51 L 11 52.5 L 10.5 54 L 10 52.5 L 11.5 51 Z " /><path fill="rgb(237,237,237)" stroke="rgb(237,237,237)" stroke-width="1" opacity="0.996078431372549" d="M 54.5 51 L 55.5 53 L 54.5 51 Z " /><path fill="rgb(237,237,237)" stroke="rgb(237,237,237)" stroke-width="1" opacity="0.996078431372549" d="M 37.5 53 L 38.5 55 L 37.5 53 Z " /><path fill="rgb(237,237,237)" stroke="rgb(237,237,237)" stroke-width="1" opacity="0.996078431372549" d="M 62.5 53 L 63.5 55 L 62.5 53 Z " /><path fill="rgb(237,237,237)" stroke="rgb(237,237,237)" stroke-width="1" opacity="0.996078431372549" d="M 160.5 53 L 159.5 55 L 160.5 53 Z " /><path fill="rgb(237,237,237)" stroke="rgb(237,237,237)" stroke-width="1" opacity="0.996078431372549" d="M 8.5 54 L 9.5 56 L 8.5 54 Z " /><path fill="rgb(237,237,237)" stroke="rgb(237,237,237)" stroke-width="1" opacity="0.996078431372549" d="M 34.5 54 L 35 56 L 33 55.5 L 34.5 54 Z " /><path fill="rgb(237,237,237)" stroke="rgb(237,237,237)" stroke-width="1" opacity="0.996078431372549" d="M 163.5 54 L 164.5 56 L 163.5 54 Z " /><path fill="rgb(237,237,237)" stroke="rgb(237,237,237)" stroke-width="1" opacity="0.996078431372549" d="M 60.5 55 L 63 56.5 L 61.5 56 L 60.5 55 Z " /><path fill="rgb(237,237,237)" stroke="rgb(237,237,237)" stroke-width="1" opacity="0.996078431372549" d="M 49.5 56 L 50.5 58 L 49.5 56 Z " /><path fill="rgb(237,237,237)" stroke="rgb(237,237,237)" stroke-width="1" opacity="0.996078431372549" d="M 6.5 57 L 8 59.5 L 6 58.5 L 6.5 57 Z " /><path fill="rgb(237,237,237)" stroke="rgb(237,237,237)" stroke-width="1" opacity="0.996078431372549" d="M 32.5 57 L 34 60 L 31 60.5 L 32.5 63 Q 28 61 31.5 59 L 33 58.5 L 32.5 57 Z " /><path fill="rgb(237,237,237)" stroke="rgb(237,237,237)" stroke-width="1" opacity="0.996078431372549" d="M 165.5 57 Q 168.5 58.5 165.5 60 L 165.5 57 Z " /><path fill="rgb(237,237,237)" stroke="rgb(237,237,237)" stroke-width="1" opacity="0.996078431372549" d="M 76.5 59 L 77.5 61 L 76.5 59 Z " /><path fill="rgb(237,237,237)" stroke="rgb(237,237,237)" stroke-width="1" opacity="0.996078431372549" d="M 72.5 60 L 76 62.5 L 73.5 61 L 72.5 60 Z " /><path fill="rgb(237,237,237)" stroke="rgb(237,237,237)" stroke-width="1" opacity="0.996078431372549" d="M 167.5 60 L 165.5 63 L 167.5 60 Z " /><path fill="rgb(237,237,237)" stroke="rgb(237,237,237)" stroke-width="1" opacity="0.996078431372549" d="M 70.5 61 L 74 63.5 L 72.5 63 L 70.5 61 Z " /><path fill="rgb(237,237,237)" stroke="rgb(237,237,237)" stroke-width="1" opacity="0.996078431372549" d="M 29.5 62 L 30.5 64 L 29.5 62 Z " /><path fill="rgb(237,237,237)" stroke="rgb(237,237,237)" stroke-width="1" opacity="0.996078431372549" d="M 34.5 62 L 36.5 62 L 38 62.5 L 34 64 L 34.5 62 Z " /><path fill="rgb(237,237,237)" stroke="rgb(237,237,237)" stroke-width="1" opacity="0.996078431372549" d="M 51.5 62 L 54 62.5 L 53.5 64 L 56 65.5 L 57 67.5 L 55 67.5 L 54.5 69 L 54 67.5 L 55 65 L 51.5 62 Z " /><path fill="rgb(237,237,237)" stroke="rgb(237,237,237)" stroke-width="1" opacity="0.996078431372549" d="M 2.5 64 L 5 67.5 L 4 67.5 Q 4.7 64.9 2 66 L 2.5 64 Z " /><path fill="rgb(237,237,237)" stroke="rgb(237,237,237)" stroke-width="1" opacity="0.996078431372549" d="M 28.5 64 L 29.5 66 L 28.5 64 Z " /><path fill="rgb(237,237,237)" stroke="rgb(237,237,237)" stroke-width="1" opacity="0.996078431372549" d="M 77.5 64 L 79 64.5 L 76.5 66 L 77.5 64 Z " /><path fill="rgb(237,237,237)" stroke="rgb(237,237,237)" stroke-width="1" opacity="0.996078431372549" d="M 80.5 65 L 85.5 69 L 86 67.5 L 84.5 65 L 87 68.5 L 87 70.5 L 86.5 72 L 85.5 70 L 84 70.5 Q 84.5 66.5 81.5 66 L 80.5 65 Z " /><path fill="rgb(237,237,237)" stroke="rgb(237,237,237)" stroke-width="1" opacity="0.996078431372549" d="M 27.5 66 L 28.5 68 L 27.5 66 Z " /><path fill="rgb(237,237,237)" stroke="rgb(237,237,237)" stroke-width="1" opacity="0.996078431372549" d="M 78.5 66 L 82 68.5 L 80.5 68 L 78.5 66 Z " /><path fill="rgb(237,237,237)" stroke="rgb(237,237,237)" stroke-width="1" opacity="0.996078431372549" d="M 26.5 68 L 27.5 70 Q 24.7 70.7 26.5 68 Z " /><path fill="rgb(237,237,237)" stroke="rgb(237,237,237)" stroke-width="1" opacity="0.996078431372549" d="M 3.5 69 L 4 70.5 L 2 71.5 L 3.5 69 Z " /><path fill="rgb(237,237,237)" stroke="rgb(237,237,237)" stroke-width="1" opacity="0.996078431372549" d="M 57.5 69 L 58.5 72 L 61 73.5 L 62 75.5 L 60 74.5 Q 60.8 72.3 58.5 73 Q 54 71 57.5 69 Z " /><path fill="rgb(237,237,237)" stroke="rgb(237,237,237)" stroke-width="1" opacity="0.996078431372549" d="M 25.5 71 L 26 72.5 L 24.5 75 L 24 73.5 L 25.5 71 Z " /><path fill="rgb(237,237,237)" stroke="rgb(237,237,237)" stroke-width="1" opacity="0.996078431372549" d="M 28.5 71 L 27.5 73 L 28.5 71 Z " /><path fill="rgb(237,237,237)" stroke="rgb(237,237,237)" stroke-width="1" opacity="0.996078431372549" d="M 92.5 72 L 96 74.5 L 94.5 77 L 92.5 72 Z " /><path fill="rgb(237,237,237)" stroke="rgb(237,237,237)" stroke-width="1" opacity="0.996078431372549" d="M 99.5 76 L 99 77.5 L 99.5 79 L 103.5 76 L 102.5 78 L 99.5 80 L 97 79 Q 95.9 76.3 98.5 77 L 99.5 76 Z " /><path fill="rgb(237,237,237)" stroke="rgb(237,237,237)" stroke-width="1" opacity="0.996078431372549" d="M 57.5 77 L 59 79.5 L 58 79.5 L 57.5 77 Z " /><path fill="rgb(237,237,237)" stroke="rgb(237,237,237)" stroke-width="1" opacity="0.996078431372549" d="M 62.5 77 L 63.5 79 L 62.5 77 Z " /><path fill="rgb(237,237,237)" stroke="rgb(237,237,237)" stroke-width="1" opacity="0.996078431372549" d="M 102.5 79 L 104.5 82 L 102 81.5 L 102.5 79 Z " /><path fill="rgb(237,237,237)" stroke="rgb(237,237,237)" stroke-width="1" opacity="0.996078431372549" d="M 197.5 80 L 198 82.5 L 197 82.5 L 197.5 80 Z " /><path fill="rgb(237,237,237)" stroke="rgb(237,237,237)" stroke-width="1" opacity="0.996078431372549" d="M 66.5 83 L 66.5 85 L 69 86.5 L 67.5 86 Q 65.3 85.3 66 87.5 L 65 87.5 L 64 85.5 L 66.5 83 Z " /><path fill="rgb(237,237,237)" stroke="rgb(237,237,237)" stroke-width="1" opacity="0.996078431372549" d="M 108.5 83 L 112 84.5 L 110.5 85 L 108.5 84 L 107 84.5 L 108.5 83 Z " /><path fill="rgb(237,237,237)" stroke="rgb(237,237,237)" stroke-width="1" opacity="0.996078431372549" d="M 69.5 88 L 72 91.5 L 69 89.5 L 69.5 88 Z " /><path fill="rgb(237,237,237)" stroke="rgb(237,237,237)" stroke-width="1" opacity="0.996078431372549" d="M 113.5 88 L 116 88.5 Q 113.9 91.8 113.5 88 Z " /><path fill="rgb(237,237,237)" stroke="rgb(237,237,237)" stroke-width="1" opacity="0.996078431372549" d="M 177.5 89 L 178 91.5 L 177 91.5 L 177.5 89 Z " /><path fill="rgb(237,237,237)" stroke="rgb(237,237,237)" stroke-width="1" opacity="0.996078431372549" d="M 20.5 90 L 21 92.5 L 20 92.5 L 20.5 90 Z " /><path fill="rgb(237,237,237)" stroke="rgb(237,237,237)" stroke-width="1" opacity="0.996078431372549" d="M 117.5 91 L 118 92.5 L 116 93.5 L 117.5 91 Z " /><path fill="rgb(237,237,237)" stroke="rgb(237,237,237)" stroke-width="1" opacity="0.996078431372549" d="M 118.5 94 L 119.5 96 L 117 95.5 L 118.5 94 Z " /><path fill="rgb(237,237,237)" stroke="rgb(237,237,237)" stroke-width="1" opacity="0.996078431372549" d="M 74.5 96 L 76 98.5 L 74 99.5 L 74 97.5 L 74.5 96 Z " /><path fill="rgb(237,237,237)" stroke="rgb(237,237,237)" stroke-width="1" opacity="0.996078431372549" d="M 118.5 97 L 119 105.5 L 118 105.5 L 118.5 97 Z " /><path fill="rgb(237,237,237)" stroke="rgb(237,237,237)" stroke-width="1" opacity="0.996078431372549" d="M 77.5 101 L 76.5 103 L 77.5 101 Z " /><path fill="rgb(237,237,237)" stroke="rgb(237,237,237)" stroke-width="1" opacity="0.996078431372549" d="M 78.5 104 Q 80.8 103.3 80 105.5 Q 82.3 106.8 79.5 108 L 78.5 104 Z " /><path fill="rgb(237,237,237)" stroke="rgb(237,237,237)" stroke-width="1" opacity="0.996078431372549" d="M 20.5 107 L 21 109.5 L 20 109.5 L 20.5 107 Z " /><path fill="rgb(237,237,237)" stroke="rgb(237,237,237)" stroke-width="1" opacity="0.996078431372549" d="M 177.5 108 L 178 110.5 L 177 110.5 L 177.5 108 Z " /><path fill="rgb(237,237,237)" stroke="rgb(237,237,237)" stroke-width="1" opacity="0.996078431372549" d="M 80.5 109 L 83 109.5 Q 80.9 112.8 80.5 109 Z " /><path fill="rgb(237,237,237)" stroke="rgb(237,237,237)" stroke-width="1" opacity="0.996078431372549" d="M 83.5 111 L 84.5 113 L 83.5 111 Z " /><path fill="rgb(237,237,237)" stroke="rgb(237,237,237)" stroke-width="1" opacity="0.996078431372549" d="M 115.5 112 L 115.5 115 Q 112.5 113.5 115.5 112 Z " /><path fill="rgb(237,237,237)" stroke="rgb(237,237,237)" stroke-width="1" opacity="0.996078431372549" d="M 80.5 113 L 83 113.5 L 80 115.5 L 80.5 113 Z " /><path fill="rgb(237,237,237)" stroke="rgb(237,237,237)" stroke-width="1" opacity="0.996078431372549" d="M 118.5 113 L 117.5 115 L 118.5 113 Z " /><path fill="rgb(237,237,237)" stroke="rgb(237,237,237)" stroke-width="1" opacity="0.996078431372549" d="M 85.5 114 L 87 115.5 L 86.5 118 L 84.5 117 Q 83.3 119.3 82 116.5 Q 83.3 113.7 84.5 116 L 86 115.5 L 85.5 114 Z " /><path fill="rgb(237,237,237)" stroke="rgb(237,237,237)" stroke-width="1" opacity="0.996078431372549" d="M 111.5 116 L 111 117.5 L 110.5 119 L 110 117.5 L 111.5 116 Z " /><path fill="rgb(237,237,237)" stroke="rgb(237,237,237)" stroke-width="1" opacity="0.996078431372549" d="M 89.5 117 L 88.5 119 L 89.5 117 Z " /><path fill="rgb(237,237,237)" stroke="rgb(237,237,237)" stroke-width="1" opacity="0.996078431372549" d="M 113.5 117 L 113.5 120 Q 110.5 118.5 113.5 117 Z " /><path fill="rgb(237,237,237)" stroke="rgb(237,237,237)" stroke-width="1" opacity="0.996078431372549" d="M 197.5 117 L 198 119.5 L 197 119.5 L 197.5 117 Z " /><path fill="rgb(237,237,237)" stroke="rgb(237,237,237)" stroke-width="1" opacity="0.996078431372549" d="M 115.5 118 L 116.5 120 L 115.5 118 Z " /><path fill="rgb(237,237,237)" stroke="rgb(237,237,237)" stroke-width="1" opacity="0.996078431372549" d="M 96.5 120 L 99 120.5 L 96.5 121 L 96.5 120 Z " /><path fill="rgb(237,237,237)" stroke="rgb(237,237,237)" stroke-width="1" opacity="0.996078431372549" d="M 101.5 120 L 104 120.5 L 101.5 121 L 101.5 120 Z " /><path fill="rgb(237,237,237)" stroke="rgb(237,237,237)" stroke-width="1" opacity="0.996078431372549" d="M 23.5 122 L 24.5 124 Q 21.7 124.7 23.5 122 Z " /><path fill="rgb(237,237,237)" stroke="rgb(237,237,237)" stroke-width="1" opacity="0.996078431372549" d="M 24.5 126 L 25.5 128 L 24.5 126 Z " /><path fill="rgb(237,237,237)" stroke="rgb(237,237,237)" stroke-width="1" opacity="0.996078431372549" d="M 170.5 130 L 171.5 132 L 170.5 130 Z " /><path fill="rgb(237,237,237)" stroke="rgb(237,237,237)" stroke-width="1" opacity="0.996078431372549" d="M 28.5 132 L 27.5 134 L 28.5 132 Z " /><path fill="rgb(237,237,237)" stroke="rgb(237,237,237)" stroke-width="1" opacity="0.996078431372549" d="M 29.5 134 L 28.5 136 L 29.5 134 Z " /><path fill="rgb(237,237,237)" stroke="rgb(237,237,237)" stroke-width="1" opacity="0.996078431372549" d="M 163.5 136 L 165 138.5 L 163 139.5 L 164 137.5 L 163.5 136 Z " /><path fill="rgb(237,237,237)" stroke="rgb(237,237,237)" stroke-width="1" opacity="0.996078431372549" d="M 29.5 137 L 32 140.5 L 30 139.5 L 29.5 137 Z " /><path fill="rgb(237,237,237)" stroke="rgb(237,237,237)" stroke-width="1" opacity="0.996078431372549" d="M 166.5 138 L 167.5 140 L 166.5 138 Z " /><path fill="rgb(237,237,237)" stroke="rgb(237,237,237)" stroke-width="1" opacity="0.996078431372549" d="M 33.5 140 L 34 141.5 L 32 142.5 L 33.5 140 Z " /><path fill="rgb(237,237,237)" stroke="rgb(237,237,237)" stroke-width="1" opacity="0.996078431372549" d="M 165.5 140 Q 168.5 141.5 165.5 143 L 165.5 140 Z " /><path fill="rgb(237,237,237)" stroke="rgb(237,237,237)" stroke-width="1" opacity="0.996078431372549" d="M 36.5 141 L 38 143.5 L 37 145.5 L 39 145.5 Q 37.5 148.5 36 145.5 L 37 143.5 L 36.5 141 Z " /><path fill="rgb(237,237,237)" stroke="rgb(237,237,237)" stroke-width="1" opacity="0.996078431372549" d="M 33.5 144 Q 35.8 143.3 35 145.5 L 33.5 144 Z " /><path fill="rgb(237,237,237)" stroke="rgb(237,237,237)" stroke-width="1" opacity="0.996078431372549" d="M 190.5 144 L 191 146.5 L 190.5 148 L 190 146 L 188 145.5 L 190.5 144 Z " /><path fill="rgb(237,237,237)" stroke="rgb(237,237,237)" stroke-width="1" opacity="0.996078431372549" d="M 8.5 145 L 11 146.5 L 9.5 147 L 8.5 145 Z " /><path fill="rgb(237,237,237)" stroke="rgb(237,237,237)" stroke-width="1" opacity="0.996078431372549" d="M 157.5 146 L 156.5 148 L 157.5 146 Z " /><path fill="rgb(237,237,237)" stroke="rgb(237,237,237)" stroke-width="1" opacity="0.996078431372549" d="M 162.5 147 L 161.5 149 L 162.5 147 Z " /><path fill="rgb(237,237,237)" stroke="rgb(237,237,237)" stroke-width="1" opacity="0.996078431372549" d="M 187.5 147 L 188.5 149 L 186 148.5 L 187.5 147 Z " /><path fill="rgb(237,237,237)" stroke="rgb(237,237,237)" stroke-width="1" opacity="0.996078431372549" d="M 8.5 148 L 10 149.5 L 9.5 152 L 8 150.5 L 8.5 148 Z " /><path fill="rgb(237,237,237)" stroke="rgb(237,237,237)" stroke-width="1" opacity="0.996078431372549" d="M 36.5 148 L 38.5 151 L 36.5 148 Z " /><path fill="rgb(237,237,237)" stroke="rgb(237,237,237)" stroke-width="1" opacity="0.996078431372549" d="M 159.5 148 L 159 151.5 L 151.5 160 L 150 159.5 Q 153.1 157.8 151.5 156 L 154 157 Q 152.9 154.3 155.5 155 L 159 150.5 Q 156.8 149.3 159.5 148 Z " /><path fill="rgb(237,237,237)" stroke="rgb(237,237,237)" stroke-width="1" opacity="0.996078431372549" d="M 190.5 149 L 192 149.5 L 190 150.5 L 190.5 152 L 188 151.5 L 190.5 149 Z " /><path fill="rgb(237,237,237)" stroke="rgb(237,237,237)" stroke-width="1" opacity="0.996078431372549" d="M 13.5 152 L 14.5 154 L 13.5 152 Z " /><path fill="rgb(237,237,237)" stroke="rgb(237,237,237)" stroke-width="1" opacity="0.996078431372549" d="M 41.5 152 L 42.5 156 Q 38 154 41.5 152 Z " /><path fill="rgb(237,237,237)" stroke="rgb(237,237,237)" stroke-width="1" opacity="0.996078431372549" d="M 151.5 152 L 149.5 155 L 151.5 152 Z " /><path fill="rgb(237,237,237)" stroke="rgb(237,237,237)" stroke-width="1" opacity="0.996078431372549" d="M 153.5 152 L 154.5 154 L 153.5 152 Z " /><path fill="rgb(237,237,237)" stroke="rgb(237,237,237)" stroke-width="1" opacity="0.996078431372549" d="M 15.5 155 L 16.5 158 L 19 159.5 L 17.5 159 L 14.5 160 L 15 158.5 L 14 156.5 L 15.5 155 Z " /><path fill="rgb(237,237,237)" stroke="rgb(237,237,237)" stroke-width="1" opacity="0.996078431372549" d="M 180.5 158 L 182 158.5 L 179.5 160 L 180.5 158 Z " /><path fill="rgb(237,237,237)" stroke="rgb(237,237,237)" stroke-width="1" opacity="0.996078431372549" d="M 49.5 161 L 50.5 163 L 49.5 161 Z " /><path fill="rgb(237,237,237)" stroke="rgb(237,237,237)" stroke-width="1" opacity="0.996078431372549" d="M 53.5 161 L 55 161.5 L 53 162.5 L 55 165.5 L 53 164.5 L 52 162.5 L 53.5 161 Z " /><path fill="rgb(237,237,237)" stroke="rgb(237,237,237)" stroke-width="1" opacity="0.996078431372549" d="M 179.5 161 L 178.5 163 L 179.5 161 Z " /><path fill="rgb(237,237,237)" stroke="rgb(237,237,237)" stroke-width="1" opacity="0.996078431372549" d="M 19.5 162 L 24 165.5 Q 22.3 163.9 20.5 167 L 18.5 168 L 19.5 166 L 22 164.5 L 19.5 162 Z " /><path fill="rgb(237,237,237)" stroke="rgb(237,237,237)" stroke-width="1" opacity="0.996078431372549" d="M 144.5 162 L 146.5 163 L 148 162.5 L 138.5 169 L 139 165.5 L 138 163.5 L 140 164.5 L 139 166.5 L 140.5 167 L 145 163.5 L 144.5 162 Z " /><path fill="rgb(237,237,237)" stroke="rgb(237,237,237)" stroke-width="1" opacity="0.996078431372549" d="M 182.5 162 L 183.5 164 L 182.5 162 Z " /><path fill="rgb(237,237,237)" stroke="rgb(237,237,237)" stroke-width="1" opacity="0.996078431372549" d="M 176.5 163 L 177.5 167 Q 173 165 176.5 163 Z " /><path fill="rgb(237,237,237)" stroke="rgb(237,237,237)" stroke-width="1" opacity="0.996078431372549" d="M 58.5 165 L 60 165.5 L 58 166.5 L 61 167.5 Q 59.8 170.3 58.5 168 L 56 166.5 L 58.5 165 Z " /><path fill="rgb(237,237,237)" stroke="rgb(237,237,237)" stroke-width="1" opacity="0.996078431372549" d="M 181.5 165 L 182.5 167 L 184 166.5 Q 182.5 169.5 181 166.5 L 181.5 165 Z " /><path fill="rgb(237,237,237)" stroke="rgb(237,237,237)" stroke-width="1" opacity="0.996078431372549" d="M 173.5 167 L 173.5 170 Q 170.5 168.5 173.5 167 Z " /><path fill="rgb(237,237,237)" stroke="rgb(237,237,237)" stroke-width="1" opacity="0.996078431372549" d="M 69.5 168 L 67.5 171 L 69.5 168 Z " /><path fill="rgb(237,237,237)" stroke="rgb(237,237,237)" stroke-width="1" opacity="0.996078431372549" d="M 129.5 168 Q 127.9 169.8 131 171.5 L 130.5 173 L 128 169.5 L 129.5 168 Z " /><path fill="rgb(237,237,237)" stroke="rgb(237,237,237)" stroke-width="1" opacity="0.996078431372549" d="M 135.5 168 L 136.5 170 L 135.5 168 Z " /><path fill="rgb(237,237,237)" stroke="rgb(237,237,237)" stroke-width="1" opacity="0.996078431372549" d="M 26.5 170 L 25.5 172 L 26.5 170 Z " /><path fill="rgb(237,237,237)" stroke="rgb(237,237,237)" stroke-width="1" opacity="0.996078431372549" d="M 170 170 L 172 170.5 L 167.5 174 L 168.5 172 Q 171.1 172.7 170 170 Z " /><path fill="rgb(237,237,237)" stroke="rgb(237,237,237)" stroke-width="1" opacity="0.996078431372549" d="M 127.5 172 L 128.5 174 L 127.5 172 Z " /><path fill="rgb(237,237,237)" stroke="rgb(237,237,237)" stroke-width="1" opacity="0.996078431372549" d="M 172.5 172 L 171.5 174 L 172.5 172 Z " /><path fill="rgb(237,237,237)" stroke="rgb(237,237,237)" stroke-width="1" opacity="0.996078431372549" d="M 29.5 174 L 28.5 176 L 29.5 174 Z " /><path fill="rgb(237,237,237)" stroke="rgb(237,237,237)" stroke-width="1" opacity="0.996078431372549" d="M 33.5 175 L 35.5 178 Q 33.8 174.9 32 176.5 L 33.5 175 Z " /><path fill="rgb(237,237,237)" stroke="rgb(237,237,237)" stroke-width="1" opacity="0.996078431372549" d="M 163.5 176 L 163.5 179 Q 160.5 177.5 163.5 176 Z " /><path fill="rgb(237,237,237)" stroke="rgb(237,237,237)" stroke-width="1" opacity="0.996078431372549" d="M 166.5 177 L 167.5 179 L 166.5 177 Z " /><path fill="rgb(237,237,237)" stroke="rgb(237,237,237)" stroke-width="1" opacity="0.996078431372549" d="M 33.5 178 L 32.5 180 L 33.5 178 Z " /><path fill="rgb(237,237,237)" stroke="rgb(237,237,237)" stroke-width="1" opacity="0.996078431372549" d="M 88.5 178 L 91 178.5 L 88.5 179 L 88.5 178 Z " /><path fill="rgb(237,237,237)" stroke="rgb(237,237,237)" stroke-width="1" opacity="0.996078431372549" d="M 107.5 178 L 110 178.5 L 107.5 179 L 107.5 178 Z " /><path fill="rgb(237,237,237)" stroke="rgb(237,237,237)" stroke-width="1" opacity="0.996078431372549" d="M 38.5 179 L 39.5 181 L 38.5 179 Z " /><path fill="rgb(237,237,237)" stroke="rgb(237,237,237)" stroke-width="1" opacity="0.996078431372549" d="M 158.5 180 L 157.5 182 L 158.5 180 Z " /><path fill="rgb(237,237,237)" stroke="rgb(237,237,237)" stroke-width="1" opacity="0.996078431372549" d="M 166.5 180 L 163.5 184 L 162.5 182 L 163.5 183 L 166.5 180 Z " /><path fill="rgb(237,237,237)" stroke="rgb(237,237,237)" stroke-width="1" opacity="0.996078431372549" d="M 33.5 181 L 35.5 184 Q 33.8 180.9 32 182.5 L 33.5 181 Z " /><path fill="rgb(237,237,237)" stroke="rgb(237,237,237)" stroke-width="1" opacity="0.996078431372549" d="M 40.5 182 L 44 183.5 L 41 184.5 L 41.5 186 L 40 184.5 L 40.5 182 Z " /><path fill="rgb(237,237,237)" stroke="rgb(237,237,237)" stroke-width="1" opacity="0.996078431372549" d="M 154.5 183 L 155.5 185 L 154.5 184 L 151 187.5 L 154.5 189 L 156 188.5 L 152.5 190 L 149.5 186 L 151 186.5 L 152.5 184 L 154.5 183 Z " /><path fill="rgb(237,237,237)" stroke="rgb(237,237,237)" stroke-width="1" opacity="0.996078431372549" d="M 45.5 184 L 49 186.5 L 47 187.5 L 47.5 189 L 44 186.5 L 45.5 187 L 47 186.5 L 45.5 184 Z " /><path fill="rgb(237,237,237)" stroke="rgb(237,237,237)" stroke-width="1" opacity="0.996078431372549" d="M 50.5 187 L 49.5 189 L 50.5 187 Z " /><path fill="rgb(237,237,237)" stroke="rgb(237,237,237)" stroke-width="1" opacity="0.996078431372549" d="M 147.5 187 L 149.5 190 Q 147.3 190.8 148 188.5 L 146 189.5 L 146.5 191 L 144 190.5 L 147.5 187 Z " /><path fill="rgb(237,237,237)" stroke="rgb(237,237,237)" stroke-width="1" opacity="0.996078431372549" d="M 46.5 190 L 47.5 192 L 46.5 190 Z " /><path fill="rgb(237,237,237)" stroke="rgb(237,237,237)" stroke-width="1" opacity="0.996078431372549" d="M 50.5 190 L 53 190.5 Q 50.9 193.8 50.5 190 Z " /><path fill="rgb(237,237,237)" stroke="rgb(237,237,237)" stroke-width="1" opacity="0.996078431372549" d="M 55.5 190 L 54.5 192 L 55.5 190 Z " /><path fill="rgb(237,237,237)" stroke="rgb(237,237,237)" stroke-width="1" opacity="0.996078431372549" d="M 139.5 191 L 141 191.5 L 135.5 194 L 135.5 193 L 139.5 191 Z " /><path fill="rgb(237,237,237)" stroke="rgb(237,237,237)" stroke-width="1" opacity="0.996078431372549" d="M 62.5 193 L 61.5 195 L 60 194.5 L 62.5 193 Z " /><path fill="rgb(237,237,237)" stroke="rgb(237,237,237)" stroke-width="1" opacity="0.996078431372549" d="M 67.5 195 Q 69.8 194.3 69 196.5 L 67.5 195 Z " /><path fill="rgb(237,237,237)" stroke="rgb(237,237,237)" stroke-width="1" opacity="0.996078431372549" d="M 129.5 195 L 128.5 197 L 129.5 195 Z " /><path fill="rgb(237,237,237)" stroke="rgb(237,237,237)" stroke-width="1" opacity="0.996078431372549" d="M 65.5 197 L 68 198.5 L 66.5 198 L 65.5 197 Z " /><path fill="rgb(237,237,237)" stroke="rgb(237,237,237)" stroke-width="1" opacity="0.996078431372549" d="M 121.5 197 L 124 197.5 L 121.5 198 L 121.5 197 Z " /><path fill="rgb(237,237,237)" stroke="rgb(237,237,237)" stroke-width="1" opacity="0.996078431372549" d="M 80.5 198 Q 83.1 197.3 82 200 L 79 199.5 L 80.5 198 Z " /><path fill="rgb(237,237,237)" stroke="rgb(237,237,237)" stroke-width="1" opacity="0.996078431372549" d="M 116 198 Q 120.1 196.7 119 200 Q 114.9 201.3 116 198 Z " /><path fill="rgb(4,4,4)" stroke="rgb(4,4,4)" stroke-width="1" opacity="0.996078431372549" d="M 82 0 L 115.5 0 Q 114.5 3.3 120.5 2 Q 154.4 10.6 174 33.5 Q 188 48.5 195 70.5 L 198 83.5 L 198 116.5 Q 190.2 155.2 164.5 176 L 141.5 191 Q 130.6 196.9 116 198 L 115.5 200 L 82 200 Q 83.3 196.3 77.5 198 Q 43.6 189.4 24 166.5 Q 8.7 150.3 2 125.5 L 0 116.5 L 0 83.5 Q 7.7 46.7 31.5 26 Q 44.3 14.3 61.5 7 L 77.5 2 L 82 2 L 82 0 Z M 90 21 L 79 23 L 68 27 L 51 37 Q 26 55 20 91 L 20 110 L 23 124 Q 29 141 40 154 Q 57 173 89 179 L 110 179 L 120 177 Q 138 171 152 160 Q 163 149 171 135 L 174 128 L 178 111 L 178 90 L 176 80 Q 170 60 158 47 L 155 44 L 153 41 L 141 32 L 120 23 L 110 21 L 90 21 Z " /><path fill="rgb(4,4,4)" stroke="rgb(4,4,4)" stroke-width="1" opacity="0.996078431372549" d="M 47 49 L 50.5 49 L 108.5 85 L 115 90.5 Q 119.8 95.7 118 107.5 L 112.5 116 L 105.5 120 L 99.5 121 L 91.5 119 L 85 113.5 L 47 52.5 L 47 49 Z " /><path fill="rgb(254,254,254)" stroke="rgb(254,254,254)" stroke-width="1" opacity="0.996078431372549" d="M 2.5 0 L 3 2 L 50.5 2 L 51.5 0 L 63.5 0 L 63.5 1 L 60.5 3 L 58.5 2 L 59 3.5 L 58 5.5 L 60 6.5 L 57 7 L 56.5 9 L 56 7.5 L 56.5 4 L 45 9.5 L 47.5 11 L 49 8 L 52 8.5 L 49 10.5 L 50 12.5 L 48.5 12 L 44.5 10 Q 41.8 11.3 44 12.5 L 45 14.5 L 43.5 17 L 42.5 15 L 44 14.5 L 40.5 13 L 34 17.5 L 35 22.5 L 33 21.5 L 34 19 L 31.5 19 L 26 23 L 24.5 26 L 22 27.5 L 19 32.5 L 20.5 32 L 23 33.5 L 20.5 37 L 20 34 L 16.5 33 L 16.5 36 L 19 36.5 Q 17.3 40.7 15.5 38 L 12 39.5 L 11 41.5 L 13 42.5 L 14.5 40 L 14 41.5 L 13 43.5 L 14.5 46 L 10.5 43 L 9.5 45 L 12 45.5 L 8 46.5 L 8.5 48 L 7 47.5 L 3 56.5 L 5 57.5 L 5.5 56 L 6 60.5 L 5 62.5 L 5.5 64 L 2.5 63 L 0 64.5 L 0 62.5 L 0 51.5 L 2 50.5 L 2 3 L 0 2.5 L 2 2 L 2.5 0 Z M 3 3 L 3 29 L 11 29 L 13 27 L 19 27 L 19 19 L 27 19 L 27 12 L 35 11 L 35 5 L 36 4 L 3 3 Z M 2 60 L 1 63 L 2 63 L 2 60 Z " /><path fill="rgb(254,254,254)" stroke="rgb(254,254,254)" stroke-width="1" opacity="0.996078431372549" d="M 67.5 0 L 70.5 1 L 72.5 1 L 75 2.5 L 73.5 3 L 72 2.5 Q 72.8 4.8 70.5 4 L 67.5 3 Q 65.8 6.7 64 3.5 L 65.5 1 L 67.5 0 Z " /><path fill="rgb(254,254,254)" stroke="rgb(254,254,254)" stroke-width="1" opacity="0.996078431372549" d="M 75.5 0 L 77.5 1 L 79 0.5 L 76.5 2 L 75.5 0 Z " /><path fill="rgb(254,254,254)" stroke="rgb(254,254,254)" stroke-width="1" opacity="0.996078431372549" d="M 119.5 0 L 118.5 2 L 119.5 0 Z " /><path fill="rgb(254,254,254)" stroke="rgb(254,254,254)" stroke-width="1" opacity="0.996078431372549" d="M 128.5 0 L 127.5 2 L 128.5 0 Z " /><path fill="rgb(254,254,254)" stroke="rgb(254,254,254)" stroke-width="1" opacity="0.996078431372549" d="M 133.5 0 L 148.5 0 L 149.5 2 L 197 2 L 197.5 0 L 198 63 L 195 64.5 L 196.5 67 L 198 66.5 L 197 68.5 L 198 71.5 L 198 73.5 L 197.5 80 L 197 73.5 L 195 69.5 L 196 67.5 L 194 67.5 L 194.5 66 L 193 65.5 L 193.5 64 Q 190.9 64.7 192 62 L 195 61.5 L 192.5 60 L 191 60.5 L 192 56 L 195 55.5 L 191.5 49 Q 190.3 51.3 189 48.5 L 190 46.5 L 188 45.5 L 187.5 48 L 186 47.5 L 185.5 49 L 182 43.5 L 185 44.5 L 184 40.5 L 186 40.5 L 182.5 35 L 181.5 38 L 180 35 Q 183 36 182 33 Q 179.3 34.1 180 31.5 L 175.5 26 L 173.5 30 L 173.5 28 L 170.5 30 Q 167.5 28.5 170.5 27 L 172.5 27 L 174 26.5 L 171.5 25 L 170 25.5 Q 169.3 23.3 171.5 24 L 168.5 20 L 167 20.5 L 162.5 15 L 159.5 14 L 160.5 16 L 164 18.5 L 162 19 L 161.5 17 L 161 19.5 L 162.5 22 L 156 17.5 L 156.5 16 L 153 13.5 L 152.5 12 L 148.5 13 L 148.5 12 Q 152.9 13.5 152 10.5 Q 154.3 9.3 151.5 8 L 150.5 11 L 146 10.5 L 146.5 9 L 145 8.5 L 148 8 L 148.5 10 L 150 7 L 143.5 5 L 141.5 5 L 140 5.5 L 141 8.5 L 140 8.5 L 138.5 5 L 135.5 6 L 132.5 4 L 131 4.5 L 132.5 2 L 137 3 L 136.5 1 L 134.5 1 L 133.5 0 Z M 140 2 Q 137 4 140 5 Q 143 4 140 2 Z M 165 3 L 165 11 L 172 11 L 173 13 L 173 19 L 181 19 L 181 27 L 188 27 L 189 32 L 189 35 L 195 35 L 196 40 L 197 40 L 197 3 L 165 3 Z M 154 10 L 153 12 L 156 12 L 154 10 Z M 155 13 L 156 14 L 157 15 Q 158 12 155 13 Z M 158 15 L 158 18 L 160 19 L 159 17 Q 160 14 158 15 Z M 188 43 L 186 45 L 188 45 L 188 43 Z " /><path fill="rgb(254,254,254)" stroke="rgb(254,254,254)" stroke-width="1" opacity="0.996078431372549" d="M 122.5 1 L 126 2.5 L 124.5 3 L 122.5 1 Z " /><path fill="rgb(254,254,254)" stroke="rgb(254,254,254)" stroke-width="1" opacity="0.996078431372549" d="M 142 8 L 144 8.5 L 142 9.5 L 142 8 Z " /><path fill="rgb(254,254,254)" stroke="rgb(254,254,254)" stroke-width="1" opacity="0.996078431372549" d="M 37.5 16 Q 42.5 18.5 37.5 21 Q 34.9 21.8 36 18.5 L 37.5 16 Z " /><path fill="rgb(254,254,254)" stroke="rgb(254,254,254)" stroke-width="1" opacity="0.996078431372549" d="M 92.5 21 L 94.5 21 L 101.5 22 L 103.5 21 L 103.5 22 L 102 22.5 L 104 23.5 L 101.5 24 L 96.5 23 L 94.5 23 L 90.5 24 L 88.5 23 L 86 24 L 86.5 22 L 88.5 22 L 92 23 L 92.5 21 Z " /><path fill="rgb(254,254,254)" stroke="rgb(254,254,254)" stroke-width="1" opacity="0.996078431372549" d="M 105.5 22 Q 109.3 21.3 110 23.5 L 107.5 24 L 105.5 22 Z " /><path fill="rgb(254,254,254)" stroke="rgb(254,254,254)" stroke-width="1" opacity="0.996078431372549" d="M 111.5 22 L 114 23.5 L 112.5 24 L 111.5 22 Z " /><path fill="rgb(254,254,254)" stroke="rgb(254,254,254)" stroke-width="1" opacity="0.996078431372549" d="M 121.5 24 L 124 25 L 124.5 27 L 126 26.5 L 125 28.5 L 129 30 L 129 28 Q 126.3 29.1 127 26.5 L 129.5 28 L 134 29 Q 135.3 33.1 132 32 L 131.5 29 L 129 30 Q 127.5 33.8 130.5 33 L 135.5 36 L 138 34.5 L 137.5 33 L 139 36.5 L 137 36.5 L 138.5 39 L 142 37.5 L 141.5 36 Q 144.8 37.8 141 39.5 L 143.5 42 L 145.5 43 L 146.5 40 L 150.5 42 Q 151.8 39.8 153 42.5 L 151 42.5 L 150 44.5 L 152 45.5 L 152.5 44 L 153.5 46 L 154.5 44 L 158 47.5 L 156.5 49 L 155.5 46 L 153 47.5 L 152 49.5 L 154 50 L 154.5 48 L 155 49.5 L 154 51.5 L 156 52.5 L 156.5 51 L 158 51.5 L 158.5 50 L 159 51.5 L 157 54.5 Q 158 57 162.5 56 L 162 54.5 L 162.5 53 L 164 55.5 Q 161.5 57 165 58.5 L 164.5 60 L 163.5 58 L 162.5 60 L 160 58.5 L 162.5 62 Q 164.2 59.3 166 63.5 L 163.5 62 L 162 63.5 Q 167.2 67.4 168 75 L 171 74.5 L 169 71.5 L 170 71.5 L 170.5 73 L 171 70.5 L 170 68.5 L 171 68.5 L 173 72.5 L 172 74.5 L 174 74.5 L 173 76.5 L 175 79.5 L 173.5 80 L 171 78.5 L 172 89.5 L 173 90.5 L 173 110.5 L 171 120 L 174 121.5 L 173.5 123 L 172.5 121 L 170 121.5 L 171.5 125 Q 172.8 122.7 174 125.5 L 170 126 L 169.5 124 L 163 136.5 L 163 139.5 L 164.5 139 L 167 139.5 L 165 140 L 164.5 144 L 163 143.5 L 162 145.5 L 162.5 147 L 160 145.5 L 157 151.5 L 157.5 153 L 155.5 154 L 155 152 L 151.5 151 L 150 154 L 153.5 153 L 153.5 154 L 152 154.5 L 153.5 157 L 148.5 154 L 150.5 158 L 146 159.5 L 148.5 161 L 150 160.5 Q 148.8 163.3 147.5 161 L 146 161.5 L 146.5 163 L 143.5 162 L 143.5 164 L 140.5 166 L 140 163 Q 137.3 161.9 138 164.5 L 138 166.5 L 137.5 168 L 136 165.5 L 137 162.5 L 136 162.5 L 134.5 165 L 128 168.5 Q 128.9 171.5 124.5 170 L 124.5 171 Q 127.8 169.9 127 172.5 L 129 172.5 L 124.5 175 L 123 172.5 Q 125.2 171.3 122.5 170 L 122 173.5 L 122.5 175 L 120.5 176 L 120 173.5 L 121 171 L 109.5 174 L 89.5 174 L 80.5 172 L 78 173 L 79 175.5 L 77.5 175 L 75 173.5 L 77 172.5 L 75 172 Q 76.1 169.3 73.5 170 L 72 172.5 L 74 172.5 L 70.5 174 L 71 172.5 L 70.5 171 L 68.5 173 L 62.5 169 L 59.5 167 L 60 165.5 L 59.5 163 L 56 164.5 L 58 165.5 L 56.5 166 Q 53.7 164.8 56 163.5 L 54.5 161 L 53 160.5 L 56 159.5 L 48.5 154 L 47 157.5 L 47.5 159 L 44 156.5 L 45 153.5 L 44.5 152 L 46 154.5 L 45.5 156 Q 47.8 156.8 47 154.5 L 48 153.5 L 43 148.5 L 39.5 143 L 37 144.5 L 37.5 142 L 39 142.5 L 38.5 140 L 35.5 142 L 35 140.5 L 35.5 139 L 32.5 140 L 29 135 Q 32.8 133.5 32 136.5 L 33.5 139 L 35 135.5 L 33 132 L 29 134 Q 30 128.3 26.5 126 Q 25.3 128.3 24 125.5 L 25 123.5 L 23 119.5 L 24.5 120 Q 26.8 119.3 26 121.5 Q 23.7 122.8 26.5 124 L 28 121.5 L 27 118.5 L 25 108.5 L 25 91.5 L 28 80.5 Q 26.8 77.8 25.5 80 L 23 79.5 L 25 78.5 L 24 76.5 L 25 76.5 L 25.5 78 L 26.5 75 L 28.5 75 Q 30.8 75.8 30 73.5 L 30 67.5 L 28.5 65 L 30 65.5 L 30.5 64 L 31.5 66 L 30 66.5 L 32 67 L 32.5 69 L 36.5 63 L 38 62.5 L 36 61.5 L 37 57 L 35 57.5 L 36 59.5 L 35 59.5 L 34 56.5 L 37.5 51 L 39.5 52 L 41.5 52 L 44 50.5 L 43.5 49 L 47.5 54 Q 45.2 48.8 43 52.5 L 43.5 54 L 41.5 53 L 43 55.5 L 47.5 63 L 49 60.5 L 48 58.5 L 51 58.5 Q 48.8 59.8 51.5 61 L 53 61.5 L 51 62.5 L 52 64.5 L 52 66.5 L 52.5 68 L 53.5 65 L 54 67.5 L 51 68.5 Q 50.3 70.8 52.5 70 L 55 71.5 L 53 72.5 L 55.5 76 L 56 72 L 60 73.5 L 60 75.5 L 60.5 79 L 62.5 79 L 64 79.5 L 59 80 L 58.5 78 L 58 80.5 L 63.5 89 L 64.5 87 L 65.5 89 L 68 87.5 L 68.5 92 L 70 91.5 L 69.5 93 L 74 95 L 74.5 102 L 75 100 L 77 100.5 Q 73 102.5 77 104.5 Q 75.9 107.8 78.5 107 L 82 108.5 Q 79.5 106.7 77 111.5 L 78 114 Q 80.7 112.9 80 115.5 L 83.5 120 L 85.5 117 L 88 117.5 L 87.5 120 L 85.5 120 L 84 120.5 L 95.5 125 L 98.5 123 L 98.5 125 Q 101.8 126.1 101 123.5 L 101.5 121 L 104.5 120 L 105 122 Q 109.1 123.7 108 119.5 L 110 118.5 L 110.5 120 L 112 119.5 L 111 122 L 117 119.5 L 116.5 117 Q 113.9 116.2 115 119.5 L 114 119.5 L 117 113.5 L 116 111.5 L 119 110.5 L 118.5 109 L 117 109.5 L 119.5 106 L 120 107.5 L 120 109.5 L 119 112.5 L 120.5 115 Q 124.8 108.3 123 95.5 L 121 89 L 118 89.5 L 120 90 L 119.5 94 L 117.5 91 L 116 90.5 Q 118.3 89.3 115.5 88 Q 110.3 89.8 112 84.5 Q 110.3 80.3 108.5 83 L 104 82.5 Q 106.5 81 103 79.5 L 103.5 78 L 106.5 82 L 108 81.5 L 107.5 80 L 110.5 82 L 111 80.5 L 104.5 76 L 101.5 76 L 99.5 76 L 96.5 77 L 94 72.5 L 96 72 L 97.5 75 L 100.5 76 L 101 74 L 79 61 L 80 63.5 L 75.5 64 L 74 60.5 L 72.5 58 L 71 58.5 Q 73.3 59.8 70.5 61 L 66 58.5 L 66.5 56 L 67.5 59 L 69.5 56 L 70.5 58 Q 73.5 56.5 70.5 55 L 62.5 50 L 60 50 L 59.5 55 L 57.5 52 L 56 52.5 L 56 50.5 Q 54.9 47.2 57.5 48 L 57.5 47 L 52 45 L 54.5 41 L 56 40.5 Q 50.5 38 55 35.5 Q 54.3 33.3 56.5 34 L 58.5 33 L 60 33.5 L 60.5 32 L 61 34.5 L 60.5 36 L 63.5 36 L 69 32.5 L 65.5 31 L 63.5 31 L 62 30.5 L 68.5 27 L 69 29 L 74 28 L 74.5 26 L 75 27.5 L 69 31.5 L 70.5 32 L 79.5 28 L 89.5 26 L 108.5 26 L 121.5 29 L 122.5 27 L 120.5 28 L 120 25.5 L 121.5 24 Z M 85 29 L 85 37 L 69 37 L 69 51 L 85 51 L 85 59 L 93 59 L 93 67 L 108 67 L 109 69 L 109 75 L 121 75 L 121 77 L 125 79 L 125 125 L 125 125 L 117 125 L 116 133 L 92 133 L 91 133 L 91 125 L 76 125 L 75 123 L 67 123 L 67 107 L 60 107 L 59 107 L 59 85 L 51 85 L 51 77 L 43 77 L 43 69 L 37 69 L 37 82 L 36 84 L 34 85 Q 29 84 29 86 L 29 115 L 36 116 L 37 119 L 37 131 Q 43 129 45 133 L 45 147 L 53 147 L 53 155 L 68 155 L 69 158 L 69 163 L 84 163 L 85 171 L 115 171 L 115 171 L 115 164 L 118 163 L 131 163 L 131 155 L 139 155 L 139 147 L 147 147 L 147 140 L 148 139 L 148 131 L 163 131 L 163 115 L 171 115 L 171 85 L 165 84 L 163 84 L 163 69 L 153 69 L 153 61 Q 148 62 147 60 L 147 53 L 139 53 L 139 45 L 133 45 L 131 44 L 131 37 L 115 37 L 115 30 L 115 29 L 85 29 Z M 57 35 L 56 37 Q 58 36 57 39 L 61 39 L 58 38 L 59 36 L 57 35 Z M 147 42 L 149 46 L 150 43 L 147 42 Z M 151 47 L 152 49 Q 153 46 151 47 Z M 59 48 Q 56 50 59 51 L 60 49 L 59 48 Z M 39 52 L 37 53 L 40 57 L 40 56 L 39 52 Z M 77 59 L 78 61 Q 79 58 77 59 Z M 77 61 L 75 63 L 77 63 L 77 61 Z M 57 76 Q 55 79 58 78 L 57 76 Z M 65 89 L 64 91 L 67 92 L 67 90 L 65 89 Z M 71 95 L 68 97 Q 69 99 73 98 L 72 97 Q 73 94 71 95 Z M 72 102 L 72 104 L 74 103 L 72 102 Z M 75 103 L 73 105 L 75 105 L 74 107 L 76 107 L 75 103 Z M 77 107 L 77 110 L 79 109 L 77 107 Z M 119 113 L 117 115 Q 116 118 119 117 L 119 113 Z M 105 122 L 102 123 Q 101 126 105 125 L 105 122 Z M 108 122 L 108 124 L 111 123 L 108 122 Z M 28 125 L 29 127 L 30 127 L 28 125 Z M 37 136 L 35 138 L 37 138 L 37 136 Z M 161 141 L 160 144 L 161 144 L 161 141 Z M 162 141 L 162 143 L 164 142 L 162 141 Z M 158 144 L 157 146 Q 153 147 156 149 L 153 151 L 156 152 L 156 151 Q 159 149 157 148 L 159 148 L 158 144 Z M 148 155 L 147 158 L 149 158 L 148 155 Z M 145 157 L 146 159 Q 147 156 145 157 Z M 143 159 L 141 161 L 143 161 L 145 161 Q 146 158 143 159 Z M 57 161 Q 56 164 59 163 Q 60 160 57 161 Z M 62 163 L 61 165 L 64 165 L 62 163 Z M 65 165 L 64 167 L 63 166 L 61 167 L 65 168 L 67 168 L 66 170 L 70 171 L 70 169 L 65 165 Z " /><path fill="rgb(254,254,254)" stroke="rgb(254,254,254)" stroke-width="1" opacity="0.996078431372549" d="M 165.5 24 L 169 26.5 L 167 27 Q 168.1 24.3 165.5 25 L 165.5 24 Z " /><path fill="rgb(254,254,254)" stroke="rgb(254,254,254)" stroke-width="1" opacity="0.996078431372549" d="M 29.5 26 L 30 28 L 28 27.5 L 29.5 26 Z " /><path fill="rgb(254,254,254)" stroke="rgb(254,254,254)" stroke-width="1" opacity="0.996078431372549" d="M 24 27 L 26 27 Q 24.9 29.7 27.5 29 L 27.5 30 L 25.5 29 L 24.5 31 L 24 27 Z " /><path fill="rgb(254,254,254)" stroke="rgb(254,254,254)" stroke-width="1" opacity="0.996078431372549" d="M 135.5 30 L 136.5 32 L 135.5 30 Z " /><path fill="rgb(254,254,254)" stroke="rgb(254,254,254)" stroke-width="1" opacity="0.996078431372549" d="M 174.5 31 L 177 32.5 L 175 33.5 L 174.5 32 L 173 32.5 L 174.5 31 Z " /><path fill="rgb(254,254,254)" stroke="rgb(254,254,254)" stroke-width="1" opacity="0.996078431372549" d="M 62.5 32 Q 65.5 33.5 62.5 35 L 62.5 32 Z " /><path fill="rgb(254,254,254)" stroke="rgb(254,254,254)" stroke-width="1" opacity="0.996078431372549" d="M 178.5 33 L 179 35 L 177 34.5 L 178.5 33 Z " /><path fill="rgb(254,254,254)" stroke="rgb(254,254,254)" stroke-width="1" opacity="0.996078431372549" d="M 141.5 34 L 146 37.5 L 145.5 39 L 142.5 35 L 141.5 34 Z " /><path fill="rgb(254,254,254)" stroke="rgb(254,254,254)" stroke-width="1" opacity="0.996078431372549" d="M 51.5 37 L 50.5 39 L 51.5 37 Z " /><path fill="rgb(254,254,254)" stroke="rgb(254,254,254)" stroke-width="1" opacity="0.996078431372549" d="M 17.5 40 L 16 42.5 L 15.5 44 L 15 42.5 L 17.5 40 Z " /><path fill="rgb(254,254,254)" stroke="rgb(254,254,254)" stroke-width="1" opacity="0.996078431372549" d="M 46.5 43 L 48 45.5 L 47 45.5 L 46.5 43 Z " /><path fill="rgb(254,254,254)" stroke="rgb(254,254,254)" stroke-width="1" opacity="0.996078431372549" d="M 43.5 44 Q 45.8 43.3 45 45.5 L 45.5 49 L 43 47.5 L 44 45.5 L 42 45.5 L 43.5 44 Z " /><path fill="rgb(254,254,254)" stroke="rgb(254,254,254)" stroke-width="1" opacity="0.996078431372549" d="M 10.5 47 Q 13.1 46.2 12 49.5 L 10 50.5 L 11 48.5 L 10.5 47 Z " /><path fill="rgb(254,254,254)" stroke="rgb(254,254,254)" stroke-width="1" opacity="0.996078431372549" d="M 40 47 Q 43 45.8 42 49.5 L 39 49.5 L 40 47 Z " /><path fill="rgb(254,254,254)" stroke="rgb(254,254,254)" stroke-width="1" opacity="0.996078431372549" d="M 51.5 48 Q 54.8 46.9 54 49.5 L 54.5 51 L 51.5 48 Z " /><path fill="rgb(254,254,254)" stroke="rgb(254,254,254)" stroke-width="1" opacity="0.996078431372549" d="M 61.5 51 Q 64.3 52.3 62 53.5 L 63 55.5 L 61 54.5 L 62 52.5 L 61.5 51 Z " /><path fill="rgb(254,254,254)" stroke="rgb(254,254,254)" stroke-width="1" opacity="0.996078431372549" d="M 188.5 51 L 190.5 54 L 191.5 52 L 192 53.5 L 191 57 L 189 56.5 L 190 54.5 L 187 52.5 L 188.5 51 Z " /><path fill="rgb(254,254,254)" stroke="rgb(254,254,254)" stroke-width="1" opacity="0.996078431372549" d="M 8.5 52 L 9.5 54 L 8.5 52 Z " /><path fill="rgb(254,254,254)" stroke="rgb(254,254,254)" stroke-width="1" opacity="0.996078431372549" d="M 45.5 54 L 46 56 L 44 55.5 L 45.5 54 Z " /><path fill="rgb(254,254,254)" stroke="rgb(254,254,254)" stroke-width="1" opacity="0.996078431372549" d="M 32.5 61 L 35 61.5 L 33.5 64 L 32.5 62 L 31 62.5 L 32.5 61 Z " /><path fill="rgb(254,254,254)" stroke="rgb(254,254,254)" stroke-width="1" opacity="0.996078431372549" d="M 82.5 64 L 84 66.5 L 83 68.5 L 83.5 70 L 82 67.5 L 83 65.5 L 82.5 64 Z " /><path fill="rgb(254,254,254)" stroke="rgb(254,254,254)" stroke-width="1" opacity="0.996078431372549" d="M 0 66 L 2 66.5 L 1.5 68 L 3 68.5 L 2.5 71 L 1 70.5 L 0.5 73 L 0 70.5 L 1 68.5 L 0 66 Z " /><path fill="rgb(254,254,254)" stroke="rgb(254,254,254)" stroke-width="1" opacity="0.996078431372549" d="M 55.5 68 L 56.5 70 L 54 69.5 L 55.5 68 Z " /><path fill="rgb(254,254,254)" stroke="rgb(254,254,254)" stroke-width="1" opacity="0.996078431372549" d="M 27.5 70 L 26.5 72 L 27.5 70 Z " /><path fill="rgb(254,254,254)" stroke="rgb(254,254,254)" stroke-width="1" opacity="0.996078431372549" d="M 91.5 72 L 90.5 74 L 91.5 72 Z " /><path fill="rgb(254,254,254)" stroke="rgb(254,254,254)" stroke-width="1" opacity="0.996078431372549" d="M 25.5 73 L 28 73.5 L 25.5 74 L 25.5 73 Z " /><path fill="rgb(254,254,254)" stroke="rgb(254,254,254)" stroke-width="1" opacity="0.996078431372549" d="M 0.5 74 L 2 76.5 L 0 75.5 L 0.5 74 Z " /><path fill="rgb(254,254,254)" stroke="rgb(254,254,254)" stroke-width="1" opacity="0.996078431372549" d="M 64.5 81 L 66 83.5 L 64 84.5 L 65 82.5 L 64.5 81 Z " /><path fill="rgb(254,254,254)" stroke="rgb(254,254,254)" stroke-width="1" opacity="0.996078431372549" d="M 22.5 82 Q 25.3 83.3 24 88.5 L 23 88.5 L 22.5 87 L 22 89.5 L 24 95.5 L 23 95.5 L 22.5 94 L 20.5 98 L 20 93.5 L 22 93.5 L 21 87.5 L 23 83.5 L 22.5 82 Z " /><path fill="rgb(254,254,254)" stroke="rgb(254,254,254)" stroke-width="1" opacity="0.996078431372549" d="M 176.5 85 L 177 89.5 L 176 89.5 L 176.5 85 Z " /><path fill="rgb(254,254,254)" stroke="rgb(254,254,254)" stroke-width="1" opacity="0.996078431372549" d="M 176.5 92 L 178 96.5 Q 175.8 97.7 177 102.5 L 177 104.5 L 176.5 109 L 176 104.5 L 176 102.5 Q 174.8 97.7 177 96.5 L 176.5 92 Z " /><path fill="rgb(254,254,254)" stroke="rgb(254,254,254)" stroke-width="1" opacity="0.996078431372549" d="M 119.5 97 L 120 99.5 L 119 99.5 L 119.5 97 Z " /><path fill="rgb(254,254,254)" stroke="rgb(254,254,254)" stroke-width="1" opacity="0.996078431372549" d="M 20.5 102 L 22.5 106 L 23.5 104 L 24 105.5 L 23 108.5 L 24 112.5 L 22.5 115 L 21.5 113 Q 24.5 113.9 23 109.5 L 22 107 Q 17.9 108.2 20.5 102 Z " /><path fill="rgb(254,254,254)" stroke="rgb(254,254,254)" stroke-width="1" opacity="0.996078431372549" d="M 80.5 111 L 83 111.5 Q 82.3 114.1 85 113 L 85 115.5 L 82 115.5 L 83 113 Q 78.5 114.3 80.5 111 Z " /><path fill="rgb(254,254,254)" stroke="rgb(254,254,254)" stroke-width="1" opacity="0.996078431372549" d="M 113.5 115 L 112.5 117 L 113.5 115 Z " /><path fill="rgb(254,254,254)" stroke="rgb(254,254,254)" stroke-width="1" opacity="0.996078431372549" d="M 197.5 120 L 198 126.5 L 197.5 129 L 196 126.5 L 197.5 120 Z " /><path fill="rgb(254,254,254)" stroke="rgb(254,254,254)" stroke-width="1" opacity="0.996078431372549" d="M 2.5 127 L 3 128.5 L 2 130.5 L 2.5 132 Q 0.3 131.3 1 133.5 L 2.5 136 L 3.5 134 L 4 135.5 L 2 138.5 L 4.5 142 L 5 139.5 L 4 137.5 L 5 137.5 Q 4.3 139.8 6.5 139 L 7 141.5 L 4.5 144 L 3 144.5 L 7 153 L 9.5 152 L 11 152.5 L 9 147.5 L 11 147 L 12 152.5 L 11.5 154 L 13.5 155 L 15 154.5 L 14 156.5 L 14.5 158 L 12 159.5 L 15 165 Q 18.7 166.5 18 163.5 L 16 163.5 Q 15.3 161.3 17.5 162 L 17 160.5 L 17.5 159 L 18 161 L 21 162.5 L 19.5 162 L 18 162.5 L 20.5 166 Q 17.2 164.9 18 167.5 L 24.5 175 L 26 174.5 Q 25.5 179.5 29.5 180 L 32 181.5 L 32.5 183 L 34 180.5 L 33.5 178 L 32 177.5 L 33.5 177 L 36 178.5 L 34 179.5 L 37 180.5 Q 34.8 181.8 37.5 183 Q 39.8 183.8 39 181.5 L 38.5 180 L 40 184 L 36 184 Q 37.1 181.3 34.5 182 L 35 183.5 Q 34.3 185.8 36.5 185 L 40.5 187 L 42 184 L 44 184.5 L 43.5 188 L 46 189.5 L 44.5 189 L 43 189.5 L 44.5 192 L 46.5 192 L 49 190.5 L 48.5 189 L 50 192 L 48 192.5 Q 53 197 61.5 198 L 63.5 198 L 65.5 199 L 67 198.5 Q 67.8 201.1 64.5 200 L 62.5 200 L 0 199.5 L 2 199 L 2 149.5 L 0 148.5 L 0 138 L 2 137.5 L 0 136.5 L 1 134.5 L 0 132.5 L 1 130.5 L 0 128.5 L 2 128.5 L 2.5 127 Z M 11 155 Q 8 160 12 159 L 13 157 L 11 155 Z M 4 164 L 3 199 L 51 199 L 51 197 L 36 197 L 35 195 L 27 195 L 27 181 L 19 181 L 19 173 L 11 173 L 11 165 L 5 165 L 4 164 Z " /><path fill="rgb(254,254,254)" stroke="rgb(254,254,254)" stroke-width="1" opacity="0.996078431372549" d="M 170.5 127 Q 173.5 126.1 172 130.5 L 168 133 L 168.5 131 Q 169.7 133.3 171 130.5 L 170.5 128 L 170 130 L 168 129.5 L 170.5 127 Z " /><path fill="rgb(254,254,254)" stroke="rgb(254,254,254)" stroke-width="1" opacity="0.996078431372549" d="M 25.5 128 Q 28.1 127.2 27 130.5 L 26 130.5 L 25.5 128 Z " /><path fill="rgb(254,254,254)" stroke="rgb(254,254,254)" stroke-width="1" opacity="0.996078431372549" d="M 195.5 129 L 197.5 132 L 195 130.5 L 195.5 129 Z " /><path fill="rgb(254,254,254)" stroke="rgb(254,254,254)" stroke-width="1" opacity="0.996078431372549" d="M 194.5 132 L 195.5 134 L 194.5 132 Z " /><path fill="rgb(254,254,254)" stroke="rgb(254,254,254)" stroke-width="1" opacity="0.996078431372549" d="M 168.5 134 L 169.5 136 L 168.5 134 Z " /><path fill="rgb(254,254,254)" stroke="rgb(254,254,254)" stroke-width="1" opacity="0.996078431372549" d="M 197.5 134 L 197 135.5 L 198 137.5 L 198 200 L 136.5 200 L 135.5 199 L 134 199.5 Q 136.3 198.3 133.5 197 L 131.5 196 L 131 198 L 133 198.5 L 130.5 200 L 130.5 198 Q 128.3 197.3 129 199.5 L 128 199.5 L 127.5 198 L 127 200 L 122 199.5 L 124 199 L 124.5 197 L 125.5 199 L 127.5 196 L 128.5 198 L 130.5 195 L 133.5 196 L 133.5 194 L 138.5 197 L 141.5 196 L 143 195.5 L 139 192.5 L 144.5 189 L 144 190.5 L 143 195 L 150 193 L 149 190.5 L 150.5 188 L 152.5 191 L 158 187.5 L 156.5 187 L 154.5 188 L 153.5 186 L 155.5 187 L 156 185 L 158 184.5 L 157 182 Q 160 183 159 180 L 162 180 L 161.5 183 L 160.5 181 L 158 185.5 L 158.5 187 L 167 182 Q 165.9 179.3 168.5 180 L 171.5 176 L 168.5 175 L 167.5 177 L 167 175.5 L 174 169.5 L 177.5 162 L 179 165.5 L 178 165.5 L 177.5 164 L 176 165.5 L 177.5 168 Q 176.3 165.8 175 168.5 L 174 170.5 L 176.5 172 L 180 167 Q 182.7 168.1 182 165.5 L 181.5 164 Q 184.8 165.1 184 162.5 L 186 160.5 L 184.5 158 L 188 157.5 L 185.5 156 L 183 157 L 182 159.5 L 184 160.5 L 182 161 L 181.5 163 L 179 162.5 L 183.5 156 L 187 153.5 L 186 151.5 L 187 151.5 Q 186.2 154.1 189.5 153 L 196 142.5 L 194.5 140 L 193 142.5 L 193.5 144 L 191 139.5 L 193.5 136 L 195 136.5 Q 194.3 134.3 196.5 135 L 197.5 134 Z M 195 137 L 195 140 L 197 139 Q 198 136 195 137 Z M 197 162 L 196 163 Q 192 162 193 165 L 189 165 L 189 172 L 188 173 L 181 173 L 181 181 L 173 181 L 173 188 L 172 189 L 165 189 L 165 197 L 149 197 L 150 199 L 197 199 L 197 162 Z M 173 172 L 171 174 L 174 174 L 173 172 Z " /><path fill="rgb(254,254,254)" stroke="rgb(254,254,254)" stroke-width="1" opacity="0.996078431372549" d="M 33.5 143 L 36 143.5 L 33.5 144 L 33.5 143 Z " /><path fill="rgb(254,254,254)" stroke="rgb(254,254,254)" stroke-width="1" opacity="0.996078431372549" d="M 35.5 145 L 36 147 Q 38.7 145.9 38 148.5 L 35 146.5 L 35.5 145 Z " /><path fill="rgb(254,254,254)" stroke="rgb(254,254,254)" stroke-width="1" opacity="0.996078431372549" d="M 39.5 145 L 40 147.5 L 39 147.5 L 39.5 145 Z " /><path fill="rgb(254,254,254)" stroke="rgb(254,254,254)" stroke-width="1" opacity="0.996078431372549" d="M 189.5 148 L 190 149.5 Q 188.8 152.3 187.5 150 L 186 149.5 L 187.5 149 L 189 149.5 L 189.5 148 Z " /><path fill="rgb(254,254,254)" stroke="rgb(254,254,254)" stroke-width="1" opacity="0.996078431372549" d="M 48.5 160 L 52 160.5 L 48.5 161 L 48.5 160 Z " /><path fill="rgb(254,254,254)" stroke="rgb(254,254,254)" stroke-width="1" opacity="0.996078431372549" d="M 22.5 166 L 24 166.5 L 20.5 168 L 20.5 167 L 22.5 166 Z " /><path fill="rgb(254,254,254)" stroke="rgb(254,254,254)" stroke-width="1" opacity="0.996078431372549" d="M 131.5 169 L 130.5 171 L 131.5 169 Z " /><path fill="rgb(254,254,254)" stroke="rgb(254,254,254)" stroke-width="1" opacity="0.996078431372549" d="M 133.5 169 L 136 169.5 L 133.5 170 L 133.5 169 Z " /><path fill="rgb(254,254,254)" stroke="rgb(254,254,254)" stroke-width="1" opacity="0.996078431372549" d="M 27.5 170 L 29 173.5 L 29.5 175 L 30.5 173 L 32 175.5 L 27 175.5 L 28 171.5 L 27.5 170 Z " /><path fill="rgb(254,254,254)" stroke="rgb(254,254,254)" stroke-width="1" opacity="0.996078431372549" d="M 165.5 175 L 166 179.5 L 163 181.5 L 165 177.5 Q 162.8 176.3 165.5 175 Z " /><path fill="rgb(254,254,254)" stroke="rgb(254,254,254)" stroke-width="1" opacity="0.996078431372549" d="M 82.5 176 L 84.5 177 L 87 176 L 86.5 178 L 83.5 177 L 82.5 176 Z " /><path fill="rgb(254,254,254)" stroke="rgb(254,254,254)" stroke-width="1" opacity="0.996078431372549" d="M 89.5 176 L 91 176.5 L 88.5 178 L 89.5 176 Z " /><path fill="rgb(254,254,254)" stroke="rgb(254,254,254)" stroke-width="1" opacity="0.996078431372549" d="M 95.5 176 L 100.5 177 L 103.5 176 L 103.5 177 L 102 177.5 L 104 178.5 L 102.5 179 L 97.5 178 L 96 178.5 L 95.5 177 L 94.5 179 L 92 177.5 L 95.5 176 Z " /><path fill="rgb(254,254,254)" stroke="rgb(254,254,254)" stroke-width="1" opacity="0.996078431372549" d="M 105.5 176 L 107 178.5 L 105 179 L 105.5 176 Z " /><path fill="rgb(254,254,254)" stroke="rgb(254,254,254)" stroke-width="1" opacity="0.996078431372549" d="M 108 176 L 110 176.5 L 108 177.5 L 108 176 Z " /><path fill="rgb(254,254,254)" stroke="rgb(254,254,254)" stroke-width="1" opacity="0.996078431372549" d="M 111 176 L 113.5 177 L 115.5 176 L 115.5 177 L 111 178 L 111 176 Z " /><path fill="rgb(254,254,254)" stroke="rgb(254,254,254)" stroke-width="1" opacity="0.996078431372549" d="M 50.5 188 L 54 189 L 53.5 192 L 53 190 L 50.5 188 Z " /><path fill="rgb(254,254,254)" stroke="rgb(254,254,254)" stroke-width="1" opacity="0.996078431372549" d="M 56.5 192 L 60 193.5 L 59 194.5 L 60.5 197 L 57 194.5 L 57.5 193 L 56.5 192 Z " /><path fill="rgb(254,254,254)" stroke="rgb(254,254,254)" stroke-width="1" opacity="0.996078431372549" d="M 62.5 195 L 65.5 196 Q 66.8 193.8 68 196.5 L 65.5 197 Q 61.7 196.8 62.5 195 Z " /><path fill="rgb(254,254,254)" stroke="rgb(254,254,254)" stroke-width="1" opacity="0.996078431372549" d="M 69 196 L 71 196.5 Q 68.8 197.8 71.5 199 L 74.5 197 L 75.5 199 L 79.5 198 L 78.5 200 L 76.5 200 L 73.5 199 L 71.5 200 L 69.5 200 Q 67.3 200.8 68 198.5 L 69 196 Z " /><path fill="rgb(254,254,254)" stroke="rgb(254,254,254)" stroke-width="1" opacity="0.996078431372549" d="M 119 198 L 121 198.5 L 119 199.5 L 119 198 Z " /><path fill="rgb(255,255,255)" stroke="rgb(255,255,255)" stroke-width="1" opacity="1" d="M 0 0 Q 3 -1 2 2 Q -1 3 0 0 Z " /><path fill="rgb(255,255,255)" stroke="rgb(255,255,255)" stroke-width="1" opacity="1" d="M 3 0 L 50.5 0 L 51 2 L 3.5 2 L 3 0 Z " /><path fill="rgb(255,255,255)" stroke="rgb(255,255,255)" stroke-width="1" opacity="1" d="M 64.5 0 L 69 1.5 L 67.5 2 L 65.5 1 L 66 2.5 Q 65.3 4.8 67.5 4 L 69.5 3 L 69.5 4 L 66.5 5 L 65 4.5 L 64.5 6 Q 63 3.5 61.5 7 L 57.5 9 L 56.5 7 L 56 10 L 52.5 11 L 50.5 10 L 50.5 12 L 44.5 16 L 42.5 15 Q 44.2 17 40.5 19 L 37 16.5 L 38 19.5 L 37 19.5 Q 37.8 17.3 35.5 18 L 36 19.5 L 37 21.5 L 35 22.5 L 35 20.5 L 34 18.5 L 37.5 14 L 41.5 12 L 45 14.5 L 43 11.5 L 46.5 11 L 49 12 L 50.5 9 L 52 8.5 L 49.5 8 Q 47.7 11.8 46 8.5 L 48 8.5 Q 47.2 5.9 50.5 7 L 60.5 1 L 60.5 3 L 63.5 1 L 64.5 0 Z M 65 2 L 63 3 L 62 5 L 65 4 L 65 2 Z M 59 3 Q 54 5 58 7 L 60 7 L 59 6 L 60 4 L 59 3 Z " /><path fill="rgb(255,255,255)" stroke="rgb(255,255,255)" stroke-width="1" opacity="1" d="M 70.5 0 L 72.5 0 L 75.5 1 L 77.5 0 L 80 1.5 L 78.5 2 L 76.5 1 L 74.5 2 L 72.5 1 L 72.5 3 L 70.5 0 Z " /><path fill="rgb(255,255,255)" stroke="rgb(255,255,255)" stroke-width="1" opacity="1" d="M 120.5 0 L 125.5 1 L 127.5 0 L 129.5 0 Q 134.1 -0.6 135.5 2 L 137 1.5 Q 137.8 4.1 134.5 3 L 130.5 1 L 129.5 3 L 131.5 2 L 131 3.5 L 130.5 5 L 124.5 2 L 123 2.5 L 123.5 1 L 119.5 2 L 120.5 0 Z " /><path fill="rgb(255,255,255)" stroke="rgb(255,255,255)" stroke-width="1" opacity="1" d="M 149 0 L 196.5 0 L 197 2 L 149.5 2 L 149 0 Z " /><path fill="rgb(255,255,255)" stroke="rgb(255,255,255)" stroke-width="1" opacity="1" d="M 139.5 2 L 140 5 L 142 5.5 L 140.5 6 Q 136 4 139.5 2 Z " /><path fill="rgb(255,255,255)" stroke="rgb(255,255,255)" stroke-width="1" opacity="1" d="M 0 3 L 2 3.5 L 2 51 L 0 50.5 L 0 3 Z " /><path fill="rgb(255,255,255)" stroke="rgb(255,255,255)" stroke-width="1" opacity="1" d="M 3 3 L 36 3.5 L 35 4.5 L 35 11 L 27 12 L 27 19 L 19 19 L 19 27 L 12.5 27 L 10.5 29 L 3 29 L 3 3 Z " /><path fill="rgb(255,255,255)" stroke="rgb(255,255,255)" stroke-width="1" opacity="1" d="M 165 3 L 197 3 L 197 39.5 L 196 39.5 L 195 35 L 189 35 L 189 31.5 L 188 27 L 181 27 L 181 19 L 173 19 L 173 12.5 L 171.5 11 L 165 11 L 165 3 Z " /><path fill="rgb(255,255,255)" stroke="rgb(255,255,255)" stroke-width="1" opacity="1" d="M 132.5 4 Q 134.8 3.3 134 5.5 L 132.5 4 Z " /><path fill="rgb(255,255,255)" stroke="rgb(255,255,255)" stroke-width="1" opacity="1" d="M 135.5 4 L 140 7.5 L 138.5 8 Q 136.8 4.9 135 6.5 L 135.5 4 Z " /><path fill="rgb(255,255,255)" stroke="rgb(255,255,255)" stroke-width="1" opacity="1" d="M 143 5 L 150 7 Q 151.1 9.7 148.5 9 L 145.5 8 L 143 9.5 L 143.5 8 L 141.5 9 L 141 7 Q 144 8 143 5 Z " /><path fill="rgb(255,255,255)" stroke="rgb(255,255,255)" stroke-width="1" opacity="1" d="M 151.5 8 L 152.5 10 Q 149.7 10.7 151.5 8 Z " /><path fill="rgb(255,255,255)" stroke="rgb(255,255,255)" stroke-width="1" opacity="1" d="M 146.5 9 L 146.5 11 L 148 11.5 L 146.5 12 Q 143.5 10.5 146.5 9 Z " /><path fill="rgb(255,255,255)" stroke="rgb(255,255,255)" stroke-width="1" opacity="1" d="M 149.5 11 L 152.5 12 L 155.5 11 L 155.5 12 Q 152.2 10.9 153 13.5 L 155.5 17 L 150 13.5 L 152 12.5 Q 148.7 12.6 149.5 11 Z " /><path fill="rgb(255,255,255)" stroke="rgb(255,255,255)" stroke-width="1" opacity="1" d="M 155.5 13 L 158.5 15 L 160.5 14 L 163 15 L 167.5 21 L 168.5 20 L 172 23.5 L 169 24.5 L 172.5 26 L 174 26.5 L 172 27.5 L 174.5 29 L 175.5 27 L 180 31.5 L 179.5 33 L 183 35.5 L 186 39.5 L 184 40.5 L 185 42.5 L 183 43.5 L 182.5 42 L 181 42.5 Q 183.3 41.3 180.5 40 L 177 37.5 L 179 37.5 Q 179.8 34.9 176.5 36 L 172.5 31 L 171 30.5 L 172.5 30 L 175 31.5 L 173.5 29 L 171.5 28 L 170 28.5 L 170.5 27 L 168.5 28 L 169 26.5 Q 169.8 24.3 167.5 25 L 166 25.5 Q 168.3 24.3 165.5 23 Q 164.3 25.3 163 22.5 L 163.5 21 L 161.5 22 L 161.5 19 L 163.5 20 L 164 18.5 L 161 17.5 L 161.5 16 L 159.5 15 L 159 17.5 L 159.5 19 L 155.5 13 Z M 165 20 L 166 22 Q 167 19 165 20 Z M 175 32 L 175 34 L 177 33 L 175 32 Z M 178 33 L 176 35 L 179 35 Q 180 32 178 33 Z M 181 34 Q 177 36 182 38 L 183 38 L 181 34 Z " /><path fill="rgb(255,255,255)" stroke="rgb(255,255,255)" stroke-width="1" opacity="1" d="M 31.5 19 L 34 20.5 L 33 22.5 L 34 23.5 L 30.5 27 L 28 26 L 29 28.5 L 27.5 29 L 25.5 26 Q 23.3 26.8 24 30.5 L 25 30.5 L 25.5 29 L 27 30.5 L 21.5 36 L 23 33.5 Q 23.8 30.9 20.5 32 L 20.5 34 L 19 31.5 L 23.5 26 L 26 24.5 Q 25.3 22.3 27.5 23 L 31.5 19 Z M 28 24 L 27 26 L 30 25 L 28 24 Z " /><path fill="rgb(255,255,255)" stroke="rgb(255,255,255)" stroke-width="1" opacity="1" d="M 98.5 21 L 103.5 22 L 105 21.5 Q 104.3 23.8 106.5 23 L 109.5 24 L 109.5 22 Q 112.1 21.3 111 24 L 114.5 24 L 116.5 23 L 121 24.5 L 120 27.5 L 121.5 27 L 123 27.5 L 122.5 29 L 124 29.5 L 122.5 30 L 108.5 26 L 89.5 26 L 79.5 28 L 70.5 32 L 70 30 L 72 29.5 L 69 29 L 69.5 27 L 71.5 28 L 71.5 26 Q 73 28.5 74.5 25 L 77.5 24 L 79.5 25 Q 81 21.5 82.5 24 L 85.5 23 L 87.5 24 L 87.5 22 L 89.5 23 L 91.5 22 L 94.5 23 L 96.5 23 L 103.5 24 L 103.5 23 L 98.5 22 L 98.5 21 Z M 74 26 L 74 28 L 72 29 L 76 29 L 76 27 L 74 26 Z " /><path fill="rgb(255,255,255)" stroke="rgb(255,255,255)" stroke-width="1" opacity="1" d="M 126.5 27 L 127.5 29 L 130 27.5 L 129 30 L 131.5 29 L 132.5 32 Q 134.8 32.8 134 30.5 L 135 30.5 Q 134.3 32.8 136.5 32 Q 137.7 29.8 139 32.5 L 139.5 34 L 141 33.5 L 140 35.5 L 141.5 35 L 144 36.5 L 145.5 39 L 147 38.5 L 145.5 36 L 154 43 L 153.5 46 L 152.5 44 L 151.5 46 L 150.5 44 L 152 43.5 L 148.5 40 L 147 41.5 L 149 42 L 148 44.5 L 152 47 L 152.5 49 Q 155 43.5 157.5 48 Q 159.8 47.3 159 49.5 L 163.5 56 Q 165.8 55.3 165 57.5 Q 168.5 59 166 60.5 L 166.5 62 L 168 61.5 L 167 63.5 L 169 63.5 L 171 67.5 L 170 69.5 L 172 69.5 L 170.5 72 L 169 71.5 L 171 74.5 L 169 75 L 163 64.5 Q 165.5 63 162 61.5 L 163 58 Q 160.3 56.9 161 59.5 L 160 59.5 L 161.5 57 L 163 56.5 Q 161.7 53.7 160.5 56 L 158.5 56 L 154 51.5 Q 154.8 49.3 152.5 50 L 147 44.5 L 146.5 42 L 144.5 42 L 137 36.5 L 138.5 37 L 140 36.5 L 137.5 32 L 135.5 36 L 129 32.5 Q 131.3 31.3 128.5 30 L 125 28.5 L 126.5 27 Z M 142 36 L 143 38 Q 144 35 142 36 Z M 156 50 L 155 52 L 158 54 L 156 50 Z M 159 50 Q 157 53 160 52 L 159 50 Z M 159 53 L 159 55 L 161 54 L 159 53 Z M 165 58 Q 163 61 166 60 L 165 58 Z M 165 62 L 166 64 Q 167 61 165 62 Z " /><path fill="rgb(255,255,255)" stroke="rgb(255,255,255)" stroke-width="1" opacity="1" d="M 85 29 L 114.5 29 L 115 29.5 L 115 37 L 131 37 L 131 43.5 L 132.5 45 L 139 45 L 139 53 L 147 53 L 147 59.5 Q 148.4 62.3 153 61 L 153 69 L 163 69 L 163 83.5 L 164.5 84 L 171 85 L 171 115 L 163 115 L 163 131 L 148 131 L 148 138.5 L 147 139.5 L 147 147 L 139 147 L 139 155 L 131 155 L 131 163 L 117.5 163 L 115 164 L 115 170.5 L 114.5 171 L 85 171 L 84 163 L 69 163 L 69 157.5 L 68 155 L 53 155 L 53 147 L 45 147 L 45 132.5 Q 43.1 129.3 37 131 L 37 118.5 L 36 116 L 29 115 L 29 85.5 Q 29 84.5 33.5 85 L 36 84 L 37 81.5 L 37 69 L 43 69 L 43 77 L 51 77 L 51 85 L 59 85 L 59 106.5 L 59.5 107 L 67 107 L 67 123 L 74.5 123 L 75.5 125 L 91 125 L 91 132.5 L 91.5 133 L 116 133 L 117 125 L 124.5 125 L 125 124.5 L 125 79 L 121 76.5 L 120.5 75 L 109 75 L 109 68.5 L 107.5 67 L 93 67 L 93 59 L 85 59 L 85 51 L 69 51 L 69 37 L 85 37 L 85 29 Z " /><path fill="rgb(255,255,255)" stroke="rgb(255,255,255)" stroke-width="1" opacity="1" d="M 60.5 31 Q 62.8 30.3 62 32.5 L 63 32.5 L 63.5 31 L 66.5 32 L 69 32.5 L 63.5 36 L 62.5 34 L 62 36 L 60 35.5 Q 63.8 33.8 60.5 32 L 59.5 34 L 59 32.5 L 60.5 31 Z " /><path fill="rgb(255,255,255)" stroke="rgb(255,255,255)" stroke-width="1" opacity="1" d="M 17.5 33 L 21 37.5 L 18 38.5 L 18.5 40 L 17 39.5 L 18 41.5 L 13 44.5 L 14 46.5 L 12 47.5 L 10.5 44 L 9 44.5 L 12 42.5 L 11.5 41 L 13 40.5 Q 10.8 39.3 13.5 38 L 16.5 39 L 19 35.5 L 17.5 36 L 16 35.5 L 18 34.5 L 17.5 33 Z M 15 40 L 13 43 L 15 42 L 15 40 Z " /><path fill="rgb(255,255,255)" stroke="rgb(255,255,255)" stroke-width="1" opacity="1" d="M 56.5 35 L 59 35.5 L 58 37.5 L 58.5 39 L 56.5 36 L 55 37.5 L 55.5 41 L 52 43.5 Q 51.3 45.8 53.5 45 L 58 47.5 L 55 49.5 L 58.5 54 L 55 52 L 54.5 50 L 53 50.5 L 54 48 L 51 48.5 L 51.5 50 L 47.5 47 L 45.5 50 L 44 50.5 Q 49.4 53.3 47.5 56 L 50 57.5 L 52 60.5 L 48 58.5 L 49 60.5 L 48 62.5 L 50 62.5 L 48.5 65 L 42 53.5 L 44 53.5 L 43.5 51 L 40 53.5 L 40 55.5 L 38.5 59 L 38 57.5 L 39 56.5 L 36.5 53 L 38 53.5 L 39 51.5 L 38.5 50 L 40.5 49 L 43.5 50 L 43.5 49 Q 41.3 49.8 42 47.5 L 41.5 46 L 43.5 45 L 44 46.5 Q 41.8 47.8 44.5 49 L 46 48.5 L 45.5 47 L 47 46.5 L 44.5 43 L 48 41.5 L 47.5 40 L 49.5 39 Q 51 41.5 52.5 38 L 54 37.5 L 53.5 36 Q 55 38.5 56.5 35 Z M 46 53 L 44 56 L 46 56 L 46 53 Z " /><path fill="rgb(255,255,255)" stroke="rgb(255,255,255)" stroke-width="1" opacity="1" d="M 187.5 43 L 190 46.5 Q 186.3 48.3 189.5 50 L 191.5 49 L 191.5 51 Q 193.8 50.3 193 52.5 L 195 55.5 L 191 57.5 L 192 60 L 195 61.5 L 192 62 L 190 57.5 L 191 54.5 L 189 53.5 L 190 55.5 L 188 54.5 L 189 50.5 L 188 50.5 L 187.5 52 L 186 48.5 L 185 45.5 L 187.5 43 Z M 186 45 L 186 47 L 188 48 Q 189 44 186 45 Z M 191 51 L 190 53 L 192 54 L 191 51 Z " /><path fill="rgb(255,255,255)" stroke="rgb(255,255,255)" stroke-width="1" opacity="1" d="M 8.5 46 L 11 46.5 L 9.5 51 L 11.5 50 L 8.5 56 L 7 56.5 L 8 58.5 L 2 70.5 Q 2.9 75.9 0.5 78 L 0 76.5 L 1 74.5 L 1 72.5 L 0 68.5 L 1.5 66 L 0 65.5 L 1 62.5 L 1.5 60 L 3.5 64 L 7 57.5 L 5 56.5 L 4.5 58 L 3 55.5 L 8.5 46 Z M 3 64 Q 1 67 4 66 L 3 64 Z M 1 68 L 1 70 L 3 69 L 1 68 Z " /><path fill="rgb(255,255,255)" stroke="rgb(255,255,255)" stroke-width="1" opacity="1" d="M 59.5 48 L 59 49.5 L 58.5 51 L 57.5 49 L 59.5 48 Z " /><path fill="rgb(255,255,255)" stroke="rgb(255,255,255)" stroke-width="1" opacity="1" d="M 60.5 50 L 61.5 52 L 62.5 50 L 63 52 Q 68.8 52.4 72 56.5 L 71.5 58 L 74 59.5 L 72 60.5 L 74 61 L 75.5 64 L 78.5 65 Q 81.3 63.7 79 62.5 Q 78.3 60.3 80.5 61 L 87.5 67 L 91.5 68 L 98 72.5 L 98 74 L 101 74 Q 99.9 76.7 102.5 76 L 106.5 78 L 111 80.5 L 107.5 82 L 104 79.5 L 103.5 78 L 102 79.5 L 103.5 82 L 99 78.5 Q 99.8 76.3 97.5 77 Q 96.3 79.3 95 76.5 L 95.5 75 L 96.5 77 L 98.5 76 L 100.5 77 L 99.5 75 L 96 73.5 L 96.5 72 L 94 72.5 L 94.5 74 L 93 73.5 L 92.5 75 L 87 71.5 L 88 69.5 L 85 70.5 Q 87.3 69.2 84.5 68 L 83 68.5 L 85 65.5 L 83.5 65 L 81.5 68 L 71 62 L 70.5 60 L 69 60.5 L 70 57.5 L 69.5 56 L 67.5 56 L 64.5 58 L 62 54.5 L 63 52.5 L 61.5 53 Q 58.4 53.7 60.5 50 Z M 80 65 L 80 66 L 82 66 L 80 65 Z M 102 77 L 101 79 L 103 78 L 102 77 Z " /><path fill="rgb(255,255,255)" stroke="rgb(255,255,255)" stroke-width="1" opacity="1" d="M 33.5 56 L 35.5 61 L 36.5 57 L 37 60.5 L 35.5 63 L 34.5 61 L 32.5 61 Q 29.9 60.3 31 63 L 35 64.5 L 32.5 69 L 32 67 L 30 67.5 L 30.5 69 L 29 68.5 L 31 72.5 L 29 72.5 L 29 74.5 L 24.5 79 L 23 78.5 L 25 78 L 24 75.5 L 26 74.5 L 26.5 76 L 28 72.5 L 26 72.5 L 26.5 70 L 28 70.5 L 27 68.5 L 29 67.5 L 28.5 66 L 30.5 66 L 32 65.5 L 30.5 63 L 29.5 65 L 29 63.5 L 31.5 60 Q 34.8 61.1 34 58.5 L 32 58.5 L 33.5 56 Z " /><path fill="rgb(255,255,255)" stroke="rgb(255,255,255)" stroke-width="1" opacity="1" d="M 2.5 57 L 4 60.5 L 3 60.5 L 2.5 57 Z " /><path fill="rgb(255,255,255)" stroke="rgb(255,255,255)" stroke-width="1" opacity="1" d="M 75.5 60 L 77 62.5 L 76 62.5 L 75.5 60 Z " /><path fill="rgb(255,255,255)" stroke="rgb(255,255,255)" stroke-width="1" opacity="1" d="M 52.5 62 Q 55.3 63.3 53 64.5 L 54 70 L 56.5 71 Q 57.8 68.8 59 71.5 L 56 72.5 L 57 77.5 L 56 77.5 L 53 72.5 L 55 71.5 L 53 71 L 52.5 68 L 51.5 70 L 49 66.5 L 52 67.5 L 53 63.5 L 52.5 62 Z " /><path fill="rgb(255,255,255)" stroke="rgb(255,255,255)" stroke-width="1" opacity="1" d="M 196.5 63 L 198 63.5 L 196 64.5 L 198 65.5 L 195.5 69 L 194 66.5 L 196 66.5 L 195 64.5 L 196.5 63 Z " /><path fill="rgb(255,255,255)" stroke="rgb(255,255,255)" stroke-width="1" opacity="1" d="M 54.5 65 L 57 68.5 L 54 66.5 L 54.5 65 Z " /><path fill="rgb(255,255,255)" stroke="rgb(255,255,255)" stroke-width="1" opacity="1" d="M 196.5 71 Q 199.2 72.3 197 73.5 L 196.5 76 L 196 73.5 L 196.5 71 Z " /><path fill="rgb(255,255,255)" stroke="rgb(255,255,255)" stroke-width="1" opacity="1" d="M 172.5 73 L 175 78.5 L 174 78.5 L 173.5 77 Q 170.5 78.5 173.5 80 L 176 80.5 L 176 89.5 L 178 94.5 L 177 94.5 L 176.5 92 L 176 95.5 Q 179.2 96.7 178 102.5 L 178 104.5 L 177.5 108 L 176.5 104 L 176 108.5 L 177 111.5 L 176 113.5 L 176 115.5 Q 177.9 120.9 174.5 120 L 175 121.5 L 173.5 125 L 171 124.5 L 170 121.5 L 173 120.5 L 171 120 L 173 110.5 L 173 90.5 L 170 77.5 L 173 76.5 L 172.5 73 Z M 177 97 L 176 103 L 177 103 L 177 97 Z " /><path fill="rgb(255,255,255)" stroke="rgb(255,255,255)" stroke-width="1" opacity="1" d="M 59.5 74 L 63 78.5 L 60 78.5 L 59.5 74 Z " /><path fill="rgb(255,255,255)" stroke="rgb(255,255,255)" stroke-width="1" opacity="1" d="M 26.5 79 Q 29.3 80.3 27 81.5 L 25 91.5 L 25 108.5 L 28 119.5 L 27 120.5 L 28.5 123 L 27 122.5 L 26.5 124 L 24.5 121 L 26 121.5 Q 26.8 119.3 24.5 120 Q 21.5 119.5 22 115.5 L 23 113 L 21 112.5 L 22 110.5 L 21 107.5 L 22 107.5 L 22.5 109 L 23 106.5 Q 19.4 104.6 20 98.5 L 22 94.5 L 21 90.5 L 22 87.5 L 21.5 86 L 23.5 89 L 24 83.5 L 22 83.5 L 23 80 L 26.5 79 Z M 23 90 L 22 94 L 23 94 L 23 90 Z M 24 109 L 23 113 L 24 113 L 24 109 Z " /><path fill="rgb(255,255,255)" stroke="rgb(255,255,255)" stroke-width="1" opacity="1" d="M 58.5 80 Q 64.6 78.8 64 81.5 L 65 83.5 L 64 85.5 L 67 84.5 L 66.5 86 L 69 87.5 L 69 89.5 L 73 94.5 L 72 96.5 L 72.5 98 Q 68.8 98.8 68 96.5 L 70 95.5 L 69.5 94 L 71.5 95 L 70 92.5 L 69.5 91 L 68 91.5 L 67.5 87 Q 64.8 88.3 67 89.5 L 66.5 92 L 65.5 89 L 64.5 91 L 58.5 80 Z M 66 86 L 64 89 L 66 88 L 66 86 Z " /><path fill="rgb(255,255,255)" stroke="rgb(255,255,255)" stroke-width="1" opacity="1" d="M 109.5 82 L 110.5 85 Q 112.8 84.3 112 86.5 L 109.5 85 L 106 83.5 L 107.5 83 L 109.5 84 L 109.5 82 Z " /><path fill="rgb(255,255,255)" stroke="rgb(255,255,255)" stroke-width="1" opacity="1" d="M 114.5 88 L 116.5 89 L 118.5 89 Q 121.8 87.9 121 90.5 Q 124.9 96.6 123 108.5 L 120.5 115 L 118.5 111 L 117 111.5 L 119 108.5 L 118 106.5 L 120 101.5 L 120 99.5 L 120 97 Q 117.3 98.1 118 95.5 L 118.5 94 L 116 92.5 L 114.5 88 Z M 118 89 L 116 91 L 117 93 L 119 92 L 120 94 L 120 90 L 118 89 Z " /><path fill="rgb(255,255,255)" stroke="rgb(255,255,255)" stroke-width="1" opacity="1" d="M 74.5 98 Q 77.3 99.3 75 100.5 L 75.5 102 Q 76.8 99.8 78 102.5 L 80 106.5 L 78.5 107 L 76.5 104 L 76 106.5 L 79.5 109 Q 81.3 106.3 83 110.5 L 80 111.5 L 80.5 114 Q 81.7 111.8 83 114.5 L 82 116.5 Q 84.8 114.6 87.5 120 L 89 118.5 L 85 115.5 L 86.5 116 L 97.5 122 L 100.5 121 L 103.5 123 L 105 120 L 107.5 119 L 108 122 Q 111.8 123.5 111 120.5 L 111 118.5 Q 110.3 116.3 112.5 117 L 115.5 113 L 117 113.5 L 115 114 Q 113.5 117.7 116.5 117 L 116.5 118 L 113.5 117 L 113.5 120 L 115.5 119 L 116 121 L 108 124 Q 109.1 120.7 105 122 Q 106.5 126.5 102 125 Q 103.3 121.7 98.5 123 L 98.5 124 L 101 124.5 L 98.5 125 L 96.5 124 L 93.5 125 L 83 119.5 L 79.5 114 Q 77.3 114.8 78 112.5 L 77 111.5 L 78.5 109 L 76.5 110 L 76 107 L 74 106.5 L 74.5 105 L 72 103.5 L 75 99.5 L 74.5 98 Z M 85 118 Q 83 121 86 120 L 85 118 Z " /><path fill="rgb(255,255,255)" stroke="rgb(255,255,255)" stroke-width="1" opacity="1" d="M 118.5 114 L 119 116.5 L 117 115.5 L 118.5 114 Z " /><path fill="rgb(255,255,255)" stroke="rgb(255,255,255)" stroke-width="1" opacity="1" d="M 0.5 123 L 2 124.5 L 2 128.5 L 6 138.5 L 3.5 143 L 4 141.5 L 1.5 138 L 0 137.5 L 1.5 137 L 3 137.5 L 1.5 134 L 0.5 136 L 0 134.5 L 1 132.5 L 0 130.5 L 1 130.5 Q 0.3 132.8 2.5 132 L 2 130.5 L 0 126.5 L 1 124.5 L 0.5 123 Z " /><path fill="rgb(255,255,255)" stroke="rgb(255,255,255)" stroke-width="1" opacity="1" d="M 169.5 124 L 170 126 Q 174.1 124.3 173 128.5 L 172 128.5 Q 172.7 125.5 169 127 L 168 129.5 L 170 130 L 170.5 128 L 171 129.5 L 170 131.5 L 170 133.5 L 168.5 137 L 165.5 136 L 163.5 139 L 163 137.5 L 169.5 124 Z M 169 131 Q 167 134 170 133 L 169 131 Z " /><path fill="rgb(255,255,255)" stroke="rgb(255,255,255)" stroke-width="1" opacity="1" d="M 27.5 125 Q 29.8 124.3 29 126.5 L 27 126.5 L 29 132 Q 25.7 133.3 27 128.5 L 26 126.5 L 27.5 125 Z " /><path fill="rgb(255,255,255)" stroke="rgb(255,255,255)" stroke-width="1" opacity="1" d="M 197.5 127 L 198 129.5 L 197.5 131 L 197 129 L 195 128.5 L 197.5 127 Z " /><path fill="rgb(255,255,255)" stroke="rgb(255,255,255)" stroke-width="1" opacity="1" d="M 31.5 130 L 31.5 132 Q 33.8 131.3 33 133.5 Q 36.5 135 34 136.5 Q 33.8 141.7 37 143.5 L 35 144.5 L 35.5 143 L 32 141.5 L 31 139.5 L 33 140.5 L 33.5 142 L 34 139.5 L 31.5 135 L 30 134.5 L 31 132.5 Q 28.7 131.3 31.5 130 Z " /><path fill="rgb(255,255,255)" stroke="rgb(255,255,255)" stroke-width="1" opacity="1" d="M 195.5 131 L 198 136.5 L 195 141.5 L 195 143.5 L 193 149 L 188.5 148 L 188 150.5 L 188.5 152 L 191.5 150 L 191.5 151 Q 188.9 150.3 190 153 L 187.5 153 L 183 156.5 L 184.5 157 L 186.5 157 L 188 157.5 L 184 158.5 L 186 160.5 L 182.5 164 Q 179.9 163.2 181 166.5 L 175.5 173 L 176 171.5 L 175.5 170 L 174 170.5 L 176.5 167 L 178 167.5 L 177 164.5 L 180.5 162 L 182.5 163 L 180.5 160 L 178 161.5 L 183 158.5 L 182.5 157 L 181 157.5 L 183 154 L 187 153 L 188 149.5 L 188 147.5 L 188.5 146 L 191.5 148 L 189.5 144 L 191 144.5 L 190 142.5 L 192 141.5 L 192.5 143 L 195 137.5 Q 191.5 136 194 134.5 L 195.5 131 Z M 196 133 Q 193 138 197 137 L 196 133 Z M 184 159 L 182 161 L 184 161 L 184 159 Z " /><path fill="rgb(255,255,255)" stroke="rgb(255,255,255)" stroke-width="1" opacity="1" d="M 30.5 136 L 31.5 138 L 30.5 136 Z " /><path fill="rgb(255,255,255)" stroke="rgb(255,255,255)" stroke-width="1" opacity="1" d="M 166.5 137 L 167.5 139 L 165 138.5 L 166.5 137 Z " /><path fill="rgb(255,255,255)" stroke="rgb(255,255,255)" stroke-width="1" opacity="1" d="M 161.5 139 L 162 141 L 164 141.5 L 163.5 144 L 161.5 141 L 160.5 143 L 160 141.5 L 161.5 139 Z " /><path fill="rgb(255,255,255)" stroke="rgb(255,255,255)" stroke-width="1" opacity="1" d="M 6.5 140 L 10 145.5 L 9 147.5 L 11 151.5 L 11.5 153 L 12.5 151 L 17 157.5 L 12.5 154 L 10.5 153 L 10 154.5 L 13 156.5 L 11.5 159 L 9 153 Q 6.3 154.1 7 151.5 L 3 144.5 L 7 143 L 6.5 140 Z " /><path fill="rgb(255,255,255)" stroke="rgb(255,255,255)" stroke-width="1" opacity="1" d="M 166.5 140 L 165.5 142 L 166.5 140 Z " /><path fill="rgb(255,255,255)" stroke="rgb(255,255,255)" stroke-width="1" opacity="1" d="M 37.5 141 Q 39.8 140.3 39 142.5 L 50.5 156 L 59 161 Q 60 164 57 163 L 55.5 160 Q 51.8 159 53 162 L 56 162.5 L 55 164.5 L 56.5 164 L 60 164.5 L 55.5 166 L 53.5 163 L 52 163.5 L 52.5 162 L 50 161.5 L 52 160.5 Q 47.4 161.1 46 158.5 L 48 154.5 L 47 154.5 Q 47.8 156.8 45.5 156 L 46.5 153 L 44 154.5 L 43.5 156 L 43 154 L 39 151.5 L 39.5 150 Q 36.5 150.9 38 146.5 L 36 146.5 L 39 143.5 L 37.5 141 Z M 39 145 L 39 148 L 40 148 Q 41 144 39 145 Z " /><path fill="rgb(255,255,255)" stroke="rgb(255,255,255)" stroke-width="1" opacity="1" d="M 158.5 143 L 158 144.5 L 159 147.5 L 157.5 150 L 160 148.5 L 161 146.5 L 160.5 145 L 162.5 145 L 164 145.5 L 162 146 L 161 150 L 157.5 152 L 156.5 150 L 154.5 153 L 154.5 151 Q 152.3 150.3 153 152.5 Q 151.5 155.5 150 152.5 L 156 148.5 Q 153.5 147 157 145.5 L 158.5 143 Z M 158 146 L 156 148 L 158 148 L 158 146 Z " /><path fill="rgb(255,255,255)" stroke="rgb(255,255,255)" stroke-width="1" opacity="1" d="M 0 149 L 2 149.5 L 2 199 L 0 198.5 L 0 149 Z " /><path fill="rgb(255,255,255)" stroke="rgb(255,255,255)" stroke-width="1" opacity="1" d="M 156.5 153 L 155.5 155 L 136.5 169 L 134.5 169 L 133 169.5 L 135 170.5 L 133.5 171 L 132 170.5 L 131.5 172 L 131 170 L 129 170.5 L 130 172.5 L 128.5 172 L 124.5 171 L 124.5 172 L 126 172.5 L 124 173 L 123.5 175 L 122.5 173 L 124 172.5 L 122 172 L 122.5 170 L 124.5 170 L 129 169.5 Q 126.8 168.3 129.5 167 L 136.5 163 L 136 164.5 L 136.5 166 L 140 163.5 L 137 167.5 L 139.5 166 L 142 164.5 L 141.5 163 L 143.5 164 L 143.5 162 Q 145 164.5 146.5 161 L 148 160.5 L 145.5 159 L 140.5 162 L 142.5 159 Q 145.8 160.1 145 157.5 L 146 157.5 Q 145.3 159.8 147.5 159 L 149 159.5 Q 149.7 156.9 147 158 L 147 155.5 Q 148.3 152.8 149.5 155 Q 151.8 154.3 151 156.5 L 153 155.5 Q 152.2 152.9 155.5 154 L 156.5 153 Z M 149 155 L 148 157 L 151 158 L 149 155 Z " /><path fill="rgb(255,255,255)" stroke="rgb(255,255,255)" stroke-width="1" opacity="1" d="M 189.5 154 L 188.5 156 L 189.5 154 Z " /><path fill="rgb(255,255,255)" stroke="rgb(255,255,255)" stroke-width="1" opacity="1" d="M 13 158 L 17 159 L 16 163.5 L 18.5 162 L 20.5 164 L 23 165.5 L 21 166.5 L 21.5 165 L 18.5 163 L 18 165 Q 14.3 166.5 15 163.5 L 12 160.5 L 13 159.5 L 13 158 Z " /><path fill="rgb(255,255,255)" stroke="rgb(255,255,255)" stroke-width="1" opacity="1" d="M 196.5 162 L 197 199 L 149.5 199 L 149 197 L 165 197 L 165 189 L 171.5 189 L 173 187.5 L 173 181 L 181 181 L 181 173 L 187.5 173 L 189 171.5 L 189 165 L 193 165 Q 191.8 162 195.5 163 L 196.5 162 Z " /><path fill="rgb(255,255,255)" stroke="rgb(255,255,255)" stroke-width="1" opacity="1" d="M 3.5 164 L 4.5 165 L 11 165 L 11 173 L 19 173 L 19 181 L 27 181 L 27 195 L 34.5 195 L 35.5 197 L 50.5 197 L 51 199 L 3 199 L 3.5 164 Z " /><path fill="rgb(255,255,255)" stroke="rgb(255,255,255)" stroke-width="1" opacity="1" d="M 63.5 164 L 69 167 L 68 169.5 L 69.5 170 Q 71.5 166 73.5 170 L 76.5 172 L 76.5 173 L 75 173.5 L 78 175 Q 76.9 172.3 79.5 173 L 79.5 172 L 78 171.5 L 79.5 171 Q 90.7 176.3 109.5 174 L 119.5 171 Q 122.3 172.3 120 173.5 Q 121.1 176.8 118.5 176 L 116.5 177 L 114.5 176 L 112.5 176 L 109.5 178 L 109.5 176 Q 106.9 175.3 108 178 L 106 178 L 105.5 176 L 104.5 179 L 102.5 178 L 97.5 179 L 97.5 178 Q 102.3 178.8 104 176.5 L 101.5 176 L 96 177 L 95.5 179 L 95 177 L 92 177.5 L 94 178.5 L 91.5 179 L 88.5 177 L 87 177.5 Q 87.8 175.3 85.5 176 L 85.5 178 L 82.5 176 L 80.5 176 L 78.5 175 L 76.5 176 L 72 172.5 L 73 170.5 L 69.5 171 L 66.5 170 L 66.5 172 Q 62.8 170 64.5 168 L 61 166.5 L 62.5 166 L 64 166.5 L 63.5 164 Z " /><path fill="rgb(255,255,255)" stroke="rgb(255,255,255)" stroke-width="1" opacity="1" d="M 18.5 166 L 22.5 168 L 25 167 Q 23.9 169.7 26.5 169 L 26.5 171 L 30 172 L 29.5 174 Q 27.8 170.3 26 173.5 L 26.5 175 L 21 171.5 L 18.5 166 Z M 24 171 L 24 173 L 26 172 L 24 171 Z " /><path fill="rgb(255,255,255)" stroke="rgb(255,255,255)" stroke-width="1" opacity="1" d="M 58.5 166 L 60.5 169 L 58.5 166 Z " /><path fill="rgb(255,255,255)" stroke="rgb(255,255,255)" stroke-width="1" opacity="1" d="M 173.5 168 L 173 169.5 L 169.5 174 L 168 174.5 L 172 176.5 L 166 180.5 L 166.5 182 Q 164.8 179.2 163 183.5 Q 163.8 185.8 161.5 185 L 156.5 189 L 154.5 186 L 153 186.5 L 154.5 189 L 150.5 187 L 149.5 189 L 148.5 187 L 150.5 186 L 151.5 187 L 157 182.5 L 157.5 184 L 158.5 181 L 161 181.5 Q 160.3 183.8 162.5 183 L 162 181.5 Q 160.9 178.2 163.5 179 L 163 180.5 L 163.5 182 L 167 177.5 L 166 174 L 172 170.5 L 171.5 169 L 173.5 168 Z M 156 185 Q 155 188 158 187 Q 159 184 156 185 Z " /><path fill="rgb(255,255,255)" stroke="rgb(255,255,255)" stroke-width="1" opacity="1" d="M 31.5 174 L 34.5 178 L 32 176.5 L 33 178.5 L 32.5 180 L 36.5 178 L 39 182.5 L 37.5 182 L 35.5 183 L 37 180.5 L 36.5 179 L 32.5 182 L 26 176.5 Q 30.3 176.8 31.5 174 Z " /><path fill="rgb(255,255,255)" stroke="rgb(255,255,255)" stroke-width="1" opacity="1" d="M 40.5 181 Q 45.3 183.3 41 185.5 L 40.5 187 L 35 184.5 Q 39.6 185.1 41 182.5 L 40.5 181 Z " /><path fill="rgb(255,255,255)" stroke="rgb(255,255,255)" stroke-width="1" opacity="1" d="M 44.5 184 L 50 187.5 L 49.5 189 L 54.5 192 L 54.5 190 L 57 191.5 L 56 193.5 L 58 193.5 Q 55.3 195.3 59.5 197 L 61 196.5 L 59 194.5 L 59.5 192 L 64 194.5 L 62 195.5 L 66 198.5 L 64.5 198 L 63 198.5 L 63.5 200 L 62.5 197 L 59.5 198 L 48 192.5 L 51 190.5 L 49.5 190 L 46.5 192 L 43 189.5 L 44.5 190 L 46 189.5 L 42 186.5 L 44.5 184 Z " /><path fill="rgb(255,255,255)" stroke="rgb(255,255,255)" stroke-width="1" opacity="1" d="M 146.5 189 L 150 191.5 Q 150.8 193.8 148.5 193 L 143 195 Q 144.1 192.3 141.5 193 L 141.5 192 L 143.5 193 L 146.5 189 Z " /><path fill="rgb(255,255,255)" stroke="rgb(255,255,255)" stroke-width="1" opacity="1" d="M 151.5 189 L 152.5 191 L 151.5 189 Z " /><path fill="rgb(255,255,255)" stroke="rgb(255,255,255)" stroke-width="1" opacity="1" d="M 137.5 193 L 142 194 Q 143.3 197 139.5 196 L 139.5 198 L 137 197 L 135.5 200 L 133.5 199 L 132 199.5 L 134.5 198 L 136 198.5 Q 136.8 196.3 134.5 197 L 132 196 L 129.5 200 L 128 197.5 L 129.5 198 Q 131.8 198.8 131 196.5 L 133.5 195 L 135.5 196 L 135.5 194 L 137.5 193 Z M 138 194 L 138 195 L 140 195 L 138 194 Z " /><path fill="rgb(255,255,255)" stroke="rgb(255,255,255)" stroke-width="1" opacity="1" d="M 65.5 195 L 69.5 198 L 73.5 197 L 73.5 198 L 70.5 200 L 65.5 195 Z " /><path fill="rgb(255,255,255)" stroke="rgb(255,255,255)" stroke-width="1" opacity="1" d="M 125 197 L 127 197.5 L 125 198.5 L 125 197 Z " /><path fill="rgb(255,255,255)" stroke="rgb(255,255,255)" stroke-width="1" opacity="1" d="M 75.5 198 L 74.5 200 L 73 199.5 L 75.5 198 Z " /><path fill="rgb(255,255,255)" stroke="rgb(255,255,255)" stroke-width="1" opacity="1" d="M 121.5 198 L 124 198.5 L 120.5 200 L 121.5 198 Z " /></svg>