<?xml version="1.0" standalone="no"?>
<!DOCTYPE svg PUBLIC "-//W3C//DTD SVG 20010904//EN"
 "http://www.w3.org/TR/2001/REC-SVG-20010904/DTD/svg10.dtd">
<svg version="1.0" xmlns="http://www.w3.org/2000/svg"
 width="980.000000pt" height="560.000000pt" viewBox="0 0 980.000000 560.000000"
 preserveAspectRatio="xMidYMid meet">

<g transform="translate(0.000000,560.000000) scale(0.100000,-0.100000)"
fill="#000000" stroke="none">
<path d="M4794 5562 c-22 -16 -59 -52 -83 -81 l-43 -51 7 -750 8 -750 42 -39
c62 -57 114 -81 177 -81 62 0 105 19 172 76 l45 39 1 766 0 766 -55 52 c-66
62 -107 81 -178 81 -43 0 -62 -6 -93 -28z"/>
<path d="M1501 4238 c-59 -13 -146 -99 -157 -152 -12 -69 0 -122 42 -173 125
-154 820 -852 936 -941 92 -70 187 -69 269 5 75 68 95 187 45 265 -36 54 -917
936 -971 971 -47 31 -104 40 -164 25z"/>
<path d="M8185 4240 c-17 -5 -76 -50 -130 -98 -160 -143 -849 -842 -884 -896
-93 -147 26 -340 200 -324 38 4 61 15 106 49 124 95 871 849 955 963 64 89 19
229 -92 286 -44 23 -116 32 -155 20z"/>
<path d="M4582 3344 c-405 -49 -739 -148 -1087 -324 -931 -470 -1560 -1367
-1692 -2412 l-17 -138 -296 -1 c-526 -1 -891 -13 -926 -32 -79 -41 -125 -142
-109 -243 6 -40 16 -57 63 -105 l57 -57 1030 -11 c1328 -14 5249 -14 6590 0
l1040 11 42 46 c55 61 77 117 71 181 -6 65 -45 141 -83 163 -57 32 -156 39
-706 45 l-547 6 -6 74 c-53 581 -301 1182 -685 1658 -79 98 -290 314 -391 400
-305 259 -670 468 -1035 592 -394 134 -929 194 -1313 147z m523 -444 c196 -11
341 -35 516 -85 625 -180 1216 -621 1534 -1145 73 -120 202 -377 249 -497 57
-144 129 -443 160 -665 l5 -38 -2668 0 -2668 0 3 23 c2 12 11 72 20 132 21
145 82 382 134 525 311 845 1010 1472 1885 1689 174 43 233 52 390 61 208 10
254 11 440 0z"/>
<path d="M140 1785 c-48 -22 -78 -52 -106 -108 -74 -144 -25 -242 155 -307
106 -39 470 -135 733 -194 168 -38 202 -43 239 -35 57 13 102 48 136 107 38
64 40 168 4 225 -43 70 -105 91 -651 227 -401 100 -457 109 -510 85z"/>
<path d="M9343 1750 c-290 -70 -649 -165 -719 -191 -116 -43 -168 -129 -145
-239 22 -107 104 -183 199 -182 53 0 300 56 608 138 305 80 399 111 435 141
37 31 79 115 79 157 0 115 -107 227 -215 225 -22 0 -131 -23 -242 -49z"/>
</g>
</svg>
